<?xml version="1.0" encoding="UTF-8"?>
<svg id="_Слой_2" data-name="Слой 2" xmlns="http://www.w3.org/2000/svg" viewBox="0 0 243.93 244.66">
  <defs>
    <style>
      .cls-1 {
        fill: #e94649;
      }

      .cls-2 {
        fill: #fde4d6;
      }

      .cls-3 {
        fill: none;
      }
    </style>
  </defs>
  <g id="_Слой_1-2" data-name="Слой 1">
    <polygon class="cls-3" points="0 53.22 0 68.83 54.24 123.08 0 177.32 0 190.39 .61 191.01 69.68 121.94 .48 52.74 0 53.22"/>
    <polygon class="cls-1" points=".48 52.74 69.68 121.94 80.2 111.42 10.52 41.74 10.52 41.74 .52 31.74 .51 31.75 10.99 42.23 .48 52.74"/>
    <rect class="cls-1" x="36.49" y="12.39" width="14.14" height="17.84" transform="translate(-2.31 37.04) rotate(-45)"/>
    <rect class="cls-1" x="52.82" y="37.6" width="14.14" height=".06" transform="translate(-9.07 53.37) rotate(-45)"/>
    <rect class="cls-1" x="59.86" y="20.52" width=".06" height="14.14" transform="translate(-1.97 50.43) rotate(-45)"/>
    <rect class="cls-1" x="36.71" y="35.99" width="15.41" height="14.14" transform="translate(-17.44 44.02) rotate(-45)"/>
    <rect class="cls-1" x="47.8" y="25.54" width="14.14" height="14.14" transform="translate(-6.99 48.35) rotate(-45)"/>
    <rect class="cls-1" x="1.01" y="18.8" width="30.75" height="14.14" transform="translate(-13.49 19.16) rotate(-45)"/>
    <polygon class="cls-1" points="10.52 41.74 .52 31.74 10.52 41.74 10.52 41.74"/>
    <rect class="cls-1" x="25.19" y="2.93" width="14.14" height="14.14" transform="translate(2.38 25.74) rotate(-45)"/>
    <rect class="cls-1" x="77.63" y="62.47" width="14.14" height=".06" transform="translate(-19.39 78.19) rotate(-45)"/>
    <rect class="cls-1" x="93.96" y="69.91" width="14.14" height="17.84" transform="translate(-26.15 94.52) rotate(-45)"/>
    <rect class="cls-1" x="110.33" y="95.1" width="14.14" height=".2" transform="translate(-32.93 110.9) rotate(-45)"/>
    <rect class="cls-1" x="94.71" y="55.43" width=".06" height="14.14" transform="translate(-16.44 85.3) rotate(-45)"/>
    <rect class="cls-1" x="71.57" y="70.9" width="15.41" height="14.14" transform="translate(-31.91 78.89) rotate(-45)"/>
    <rect class="cls-1" x="82.65" y="60.45" width="14.14" height="14.14" transform="translate(-21.47 83.22) rotate(-45)"/>
    <rect class="cls-1" x="117.33" y="78.06" height="14.14" transform="translate(-25.83 107.9) rotate(-45)"/>
    <rect class="cls-1" x="81.13" y="98.91" width="30.7" height="14.14" transform="translate(-46.69 99.27) rotate(-45)"/>
    <rect class="cls-1" x="105.26" y="83.06" width="14.14" height="14.14" transform="translate(-30.83 105.83) rotate(-45)"/>
    <polygon class="cls-1" points="0 52.26 .48 52.74 10.99 42.23 .51 31.75 0 32.26 0 52.26"/>
    <polygon class="cls-1" points="80.63 111.84 80.2 111.41 80.2 111.42 80.62 111.85 80.63 111.84"/>
    <polygon class="cls-1" points="90.72 121.93 90.63 121.84 90.59 121.87 90.59 121.87 80.1 132.36 69.68 121.94 .61 191.01 11.09 201.49 .58 212 .62 212.04 .62 212.04 .59 212.01 10.59 202.01 10.62 202.04 80.72 131.93 80.72 131.93 90.72 121.93"/>
    <polygon class="cls-1" points="80.1 132.36 90.59 121.87 80.59 111.87 80.62 111.85 80.2 111.42 69.68 121.94 80.1 132.36"/>
    <polygon class="cls-1" points="90.62 121.85 90.59 121.87 90.59 121.87 90.63 121.84 80.63 111.84 80.62 111.85 90.62 121.85"/>
    <polygon class="cls-1" points="80.62 111.85 80.59 111.87 90.59 121.87 90.62 121.85 80.62 111.85"/>
    <polygon class="cls-1" points=".61 191.01 0 191.62 0 211.42 .58 212 11.09 201.49 .61 191.01"/>
    <polygon class="cls-1" points="112.46 163.67 102.46 153.67 89.85 166.28 99.85 176.28 122.11 154.02 112.46 163.67"/>
    <rect class="cls-1" x="117.43" y="141.53" width=".2" height="14.14" transform="translate(-70.65 126.63) rotate(-45)"/>
    <rect class="cls-1" x="84.8" y="174.24" width=".06" height="14.14" transform="translate(-103.36 113.09) rotate(-45)"/>
    <rect class="cls-1" x="87.8" y="181.28" width="14.14" height=".06" transform="translate(-100.41 120.19) rotate(-45)"/>
    <rect class="cls-1" x="72.33" y="158.13" width="14.14" height="15.41" transform="translate(-94.01 104.72) rotate(-45)"/>
    <rect class="cls-1" x="82.78" y="169.21" width="14.14" height="14.14" transform="translate(-98.34 115.17) rotate(-45)"/>
    <polygon class="cls-1" points="122.46 153.67 122.46 153.67 122.11 154.02 122.46 153.67"/>
    <rect class="cls-1" x="89.52" y="122.43" width="14.14" height="30.75" transform="translate(-69.15 108.66) rotate(-45)"/>
    <polygon class="cls-1" points="80.72 131.93 80.72 131.93 90.72 121.93 80.72 131.93"/>
    <polygon class="cls-1" points="122.11 154.02 122.46 153.67 112.46 143.67 102.46 153.67 112.46 163.67 122.11 154.02"/>
    <rect class="cls-1" x="34.72" y="215.37" width="17.84" height="14.14" transform="translate(-144.51 96) rotate(-45)"/>
    <rect class="cls-1" x="27.16" y="231.75" width=".2" height="14.14" transform="translate(-160.89 89.22) rotate(-45)"/>
    <rect class="cls-1" x="59.93" y="199.04" width=".06" height="14.14" transform="translate(-128.18 102.77) rotate(-45)"/>
    <rect class="cls-1" x="37.42" y="192.98" width="14.14" height="15.41" transform="translate(-128.88 90.24) rotate(-45)"/>
    <rect class="cls-1" x="52.89" y="216.13" width="14.14" height=".06" transform="translate(-135.29 105.71) rotate(-45)"/>
    <rect class="cls-1" x="47.87" y="204.07" width="14.14" height="14.14" transform="translate(-133.2 100.69) rotate(-45)"/>
    <rect class="cls-1" x="30.26" y="238.75" width="14.14" transform="translate(-157.89 96.33) rotate(-45)"/>
    <rect class="cls-1" x="9.4" y="202.54" width="14.14" height="30.71" transform="translate(-149.25 75.47) rotate(-45)"/>
    <rect class="cls-1" x="-1.47" y="207" width="14.14" height=".04" transform="translate(-144.59 64.44) rotate(-44.94)"/>
    <rect class="cls-1" x="25.26" y="226.68" width="14.14" height="14.14" transform="translate(-155.82 91.33) rotate(-45)"/>
    <path class="cls-1" d="m54.24,123.08L0,68.83v108.48s54.24-54.24,54.24-54.24Zm-44.85,33.24c-2.98-3.3-5.97-6.59-8.95-9.89v-19.06c2.98,3.17,5.97,6.34,8.95,9.5,0,6.48,0,12.97,0,19.45Zm2.14-23.85c-3.17-2.98-6.34-5.97-9.5-8.95h19.06c3.31,2.95,6.61,5.9,9.92,8.84-6.49.04-12.99.07-19.48.11Zm19.48-18.67c-3.31,2.95-6.61,5.9-9.92,8.84H2.02c3.17-2.98,6.34-5.97,9.5-8.95,6.49.04,12.99.07,19.48.11ZM.44,99.96c2.95-3.31,5.89-6.61,8.84-9.92.04,6.49.07,12.99.11,19.48-2.98,3.17-5.97,6.34-8.95,9.5v-19.06Z"/>
    <path class="cls-2" d="m2.02,123.51c3.17,2.98,6.34,5.97,9.5,8.95,6.49-.04,12.99-.07,19.48-.11-3.31-2.95-6.61-5.9-9.92-8.84H2.02Z"/>
    <path class="cls-2" d="m21.09,122.64c3.31-2.95,6.61-5.9,9.92-8.84-6.49-.04-12.99-.07-19.48-.11-3.17,2.98-6.34,5.97-9.5,8.95h19.06Z"/>
    <path class="cls-2" d="m9.28,90.04c-2.95,3.31-5.9,6.61-8.84,9.92v19.06c2.98-3.17,5.97-6.34,8.95-9.5-.04-6.49-.07-12.99-.11-19.48Z"/>
    <path class="cls-2" d="m.44,146.42c2.98,3.3,5.97,6.59,8.95,9.89,0-6.48,0-12.97,0-19.45-2.98-3.17-5.97-6.34-8.95-9.5v19.06Z"/>
    <polygon class="cls-3" points="243.93 53.98 243.93 69.6 189.68 123.84 243.93 178.08 243.93 191.16 243.32 191.77 174.25 122.7 243.45 53.5 243.93 53.98"/>
    <polygon class="cls-1" points="243.45 53.5 174.25 122.7 163.73 112.19 233.41 42.51 233.41 42.51 243.41 32.51 243.41 32.51 232.93 42.99 243.45 53.5"/>
    <rect class="cls-1" x="191.45" y="15" width="17.84" height="14.14" transform="translate(43.08 148.14) rotate(-45)"/>
    <rect class="cls-1" x="184" y="31.33" width=".06" height="14.14" transform="translate(26.75 141.38) rotate(-45)"/>
    <rect class="cls-1" x="176.97" y="28.33" width="14.14" height=".06" transform="translate(33.85 138.44) rotate(-45)"/>
    <rect class="cls-1" x="192.44" y="36.12" width="14.14" height="15.41" transform="translate(27.45 153.91) rotate(-45)"/>
    <rect class="cls-1" x="181.99" y="26.31" width="14.14" height="14.14" transform="translate(31.77 143.46) rotate(-45)"/>
    <rect class="cls-1" x="220.47" y="11.26" width="14.14" height="30.75" transform="translate(47.81 168.7) rotate(-45)"/>
    <polygon class="cls-1" points="233.41 42.51 243.41 32.51 233.41 42.51 233.41 42.51"/>
    <rect class="cls-1" x="204.6" y="3.69" width="14.14" height="14.14" transform="translate(54.38 152.83) rotate(-45)"/>
    <rect class="cls-1" x="159.2" y="56.19" width=".06" height="14.14" transform="translate(1.9 131.12) rotate(-45)"/>
    <rect class="cls-1" x="133.98" y="72.52" width="17.84" height="14.14" transform="translate(-14.43 124.36) rotate(-45)"/>
    <rect class="cls-1" x="126.42" y="88.9" width=".2" height="14.14" transform="translate(-30.8 117.58) rotate(-45)"/>
    <rect class="cls-1" x="142.11" y="63.24" width="14.14" height=".06" transform="translate(-1.04 124.02) rotate(-45)"/>
    <rect class="cls-1" x="157.58" y="71.03" width="14.14" height="15.41" transform="translate(-7.45 139.49) rotate(-45)"/>
    <rect class="cls-1" x="147.13" y="61.22" width="14.14" height="14.14" transform="translate(-3.12 129.04) rotate(-45)"/>
    <rect class="cls-1" x="119.52" y="85.9" width="14.14" transform="translate(-23.66 114.67) rotate(-45)"/>
    <rect class="cls-1" x="140.38" y="91.4" width="14.14" height="30.7" transform="translate(-32.3 135.53) rotate(-45)"/>
    <rect class="cls-1" x="124.52" y="83.83" width="14.14" height="14.14" transform="translate(-25.73 119.67) rotate(-45)"/>
    <polygon class="cls-1" points="243.93 53.03 243.45 53.5 232.93 42.99 243.41 32.51 243.93 33.02 243.93 53.03"/>
    <polygon class="cls-1" points="163.3 112.6 163.72 112.18 163.73 112.19 163.31 112.61 163.3 112.6"/>
    <polygon class="cls-1" points="153.21 122.7 153.3 122.6 153.34 122.64 153.34 122.64 163.82 133.13 174.25 122.7 243.32 191.77 232.84 202.25 243.35 212.76 243.31 212.8 243.31 212.8 243.34 212.77 233.34 202.77 233.31 202.8 163.21 132.7 163.21 132.7 153.21 122.7"/>
    <polygon class="cls-1" points="163.82 133.13 153.34 122.64 163.34 112.64 163.31 112.61 163.73 112.19 174.25 122.7 163.82 133.13"/>
    <polygon class="cls-1" points="153.31 122.61 153.34 122.64 153.34 122.64 153.3 122.6 163.3 112.6 163.31 112.61 153.31 122.61"/>
    <polygon class="cls-1" points="163.31 112.61 163.34 112.64 153.34 122.64 153.31 122.61 163.31 112.61"/>
    <polygon class="cls-1" points="243.32 191.77 243.93 192.38 243.93 212.19 243.35 212.76 232.84 202.25 243.32 191.77"/>
    <polygon class="cls-1" points="131.46 164.44 141.47 154.44 154.08 167.05 144.08 177.05 121.81 154.79 131.46 164.44"/>
    <rect class="cls-1" x="119.32" y="149.27" width="14.14" height=".2" transform="translate(-68.6 133.12) rotate(-45)"/>
    <rect class="cls-1" x="152.03" y="182.04" width="14.14" height=".06" transform="translate(-82.15 165.83) rotate(-45)"/>
    <rect class="cls-1" x="149.03" y="175" width=".06" height="14.14" transform="translate(-85.09 158.73) rotate(-45)"/>
    <rect class="cls-1" x="156.82" y="159.53" width="15.41" height="14.14" transform="translate(-69.62 165.13) rotate(-45)"/>
    <rect class="cls-1" x="147.01" y="169.98" width="14.14" height="14.14" transform="translate(-80.07 160.8) rotate(-45)"/>
    <polygon class="cls-1" points="121.46 154.44 121.46 154.44 121.81 154.79 121.46 154.44"/>
    <rect class="cls-1" x="131.96" y="131.5" width="30.75" height="14.14" transform="translate(-54.83 144.77) rotate(-45)"/>
    <polygon class="cls-1" points="163.21 132.7 163.21 132.7 153.21 122.7 163.21 132.7"/>
    <polygon class="cls-1" points="121.81 154.79 121.46 154.44 131.46 144.44 141.47 154.44 131.46 164.44 121.81 154.79"/>
    <rect class="cls-1" x="193.22" y="214.29" width="14.14" height="17.84" transform="translate(-99.17 207.01) rotate(-45)"/>
    <rect class="cls-1" x="209.6" y="239.49" width="14.14" height=".2" transform="translate(-105.95 223.39) rotate(-45)"/>
    <rect class="cls-1" x="176.89" y="206.85" width="14.14" height=".06" transform="translate(-92.4 190.68) rotate(-45)"/>
    <rect class="cls-1" x="191.73" y="194.38" width="15.41" height="14.14" transform="translate(-84.04 200.02) rotate(-45)"/>
    <rect class="cls-1" x="183.94" y="209.85" width=".06" height="14.14" transform="translate(-99.51 193.61) rotate(-45)"/>
    <rect class="cls-1" x="181.92" y="204.83" width="14.14" height="14.14" transform="translate(-94.49 195.7) rotate(-45)"/>
    <rect class="cls-1" x="206.6" y="232.44" height="14.14" transform="translate(-108.85 216.24) rotate(-45)"/>
    <rect class="cls-1" x="212.1" y="211.59" width="30.71" height="14.14" transform="translate(-87.99 224.87) rotate(-45)"/>
    <rect class="cls-1" x="238.31" y="200.72" width=".04" height="14.14" transform="translate(-77.1 229.72) rotate(-45.06)"/>
    <rect class="cls-1" x="204.53" y="227.44" width="14.14" height="14.14" transform="translate(-103.85 218.31) rotate(-45)"/>
    <path class="cls-1" d="m243.93,178.08v-108.48s-54.24,54.24-54.24,54.24l54.24,54.24Zm-9.39-40.45c2.98-3.17,5.97-6.34,8.95-9.5v19.06c-2.98,3.3-5.97,6.59-8.95,9.89,0-6.48,0-12.97,0-19.45Zm-21.62-4.51c3.31-2.95,6.61-5.9,9.92-8.84h19.06c-3.17,2.98-6.34,5.97-9.5,8.95-6.49-.04-12.99-.07-19.48-.11Zm19.48-18.67c3.17,2.98,6.34,5.97,9.5,8.95h-19.06c-3.31-2.95-6.61-5.9-9.92-8.84,6.49-.04,12.99-.07,19.48-.11Zm11.09,5.34c-2.98-3.17-5.97-6.34-8.95-9.5.04-6.49.07-12.99.11-19.48,2.95,3.31,5.9,6.61,8.84,9.92v19.06Z"/>
    <path class="cls-2" d="m241.91,124.28c-3.17,2.98-6.34,5.97-9.5,8.95-6.49-.04-12.99-.07-19.48-.11,3.31-2.95,6.61-5.9,9.92-8.84h19.06Z"/>
    <path class="cls-2" d="m222.84,123.41c-3.31-2.95-6.61-5.9-9.92-8.84,6.49-.04,12.99-.07,19.48-.11,3.17,2.98,6.34,5.97,9.5,8.95h-19.06Z"/>
    <path class="cls-2" d="m234.65,90.8c2.95,3.31,5.9,6.61,8.84,9.92v19.06c-2.98-3.17-5.97-6.34-8.95-9.5.04-6.49.07-12.99.11-19.48Z"/>
    <path class="cls-2" d="m243.49,147.19c-2.98,3.3-5.97,6.59-8.95,9.89,0-6.48,0-12.97,0-19.45,2.98-3.17,5.97-6.34,8.95-9.5v19.06Z"/>
  </g>
</svg>