<svg width="29" height="22" viewBox="0 0 29 22" fill="none" xmlns="http://www.w3.org/2000/svg">
<path d="M28.1174 2.98231C28.0002 2.39029 27.7361 1.83074 27.3507 1.36033C27.2725 1.26156 27.1906 1.1737 27.1011 1.08457C26.4155 0.395326 25.4618 0 24.4844 0H3.70189C2.71366 0 1.78422 0.385361 1.08479 1.08496C0.996269 1.17326 0.914187 1.262 0.832931 1.3639C0.449221 1.83234 0.18624 2.39111 0.0718974 2.98396C0.0241126 3.21678 0 3.45801 0 3.70206V18.2983C0 18.8061 0.103167 19.3005 0.307683 19.7706C0.484674 20.1881 0.753216 20.5839 1.08457 20.915C1.16803 20.9981 1.25094 21.0747 1.33946 21.1495C2.00195 21.6981 2.84083 22 3.70189 22H24.4844C25.351 22 26.1891 21.6969 26.8498 21.1434C26.9381 21.0719 27.02 20.9969 27.1019 20.915C27.4221 20.5951 27.6767 20.2274 27.8597 19.822L27.8838 19.7642C28.0845 19.3031 28.1864 18.8102 28.1864 18.2983V3.70206C28.1864 3.4612 28.1632 3.21837 28.1174 2.98231ZM1.91706 2.36259C1.96942 2.28596 2.03625 2.20729 2.12152 2.12136C2.54482 1.69829 3.10618 1.46547 3.70184 1.46547H24.4844C25.0853 1.46547 25.6468 1.69867 26.0654 2.12218C26.1377 2.19524 26.2067 2.27633 26.2669 2.35737L26.4259 2.57097L15.333 12.2389C14.991 12.5387 14.5507 12.7037 14.093 12.7037C13.6399 12.7037 13.2 12.5391 12.8539 12.2393L1.77211 2.57372L1.91706 2.36259ZM1.47291 18.4272C1.46691 18.3874 1.46553 18.3433 1.46553 18.2983V4.00429L10.0739 11.5139L1.5524 18.9438L1.47291 18.4272ZM25.5934 20.2398C25.2603 20.4321 24.8766 20.534 24.4844 20.534H3.70189C3.30954 20.534 2.92599 20.4321 2.59304 20.2398L2.24467 20.0379L11.0494 12.3649L12.0144 13.2042C12.5932 13.7067 13.3313 13.9837 14.0932 13.9837C14.8578 13.9837 15.5972 13.7067 16.1756 13.2042L17.1402 12.3645L25.9419 20.0383L25.5934 20.2398ZM26.7205 18.2983C26.7205 18.3425 26.7197 18.3862 26.7141 18.4251L26.6378 18.9466L18.1126 11.518L26.7205 4.00792V18.2983Z" fill="white"/>
</svg>
