<svg xmlns="http://www.w3.org/2000/svg" width="110" height="99" viewBox="0 0 110 99" fill="none">
  <path fill-rule="evenodd" clip-rule="evenodd" d="M33.715 2.24751C33.6784 2.24751 33.6416 2.24751 33.605 2.24751C33.5739 2.16099 33.5189 2.0879 33.44 2.02824C33.385 3.16054 33.3667 4.29343 33.385 5.42691C32.2477 5.40865 31.1111 5.42693 29.975 5.48173C30.1081 5.59565 30.2181 5.72356 30.305 5.86545C30.0425 5.7697 29.8225 5.60525 29.645 5.37209C30.8545 5.3173 32.0645 5.29902 33.275 5.31727C33.2566 4.11074 33.275 2.90477 33.33 1.69933C33.5282 1.84069 33.6566 2.0234 33.715 2.24751Z" fill="#0D0D0E"/>
  <path fill-rule="evenodd" clip-rule="evenodd" d="M40.095 5.53654C38.9782 5.42754 37.8415 5.39099 36.685 5.42691C36.7033 4.29343 36.685 3.16054 36.63 2.02824C36.4792 2.19723 36.3142 2.3434 36.135 2.46678C36.2684 2.16798 36.4701 1.91216 36.74 1.69933C36.795 2.90477 36.8134 4.11075 36.795 5.31727C38.0055 5.29902 39.2155 5.3173 40.425 5.37209C40.3432 5.48596 40.2332 5.54077 40.095 5.53654Z" fill="#0D0D0E"/>
  <path fill-rule="evenodd" clip-rule="evenodd" d="M72.325 2.68604C72.1091 2.52599 71.9074 2.34326 71.72 2.13787C71.665 3.2336 71.6467 4.32995 71.665 5.42691C70.4719 5.39097 69.2986 5.42752 68.145 5.53654C68.038 5.48318 67.928 5.42837 67.815 5.37209C69.0245 5.3173 70.2345 5.29902 71.445 5.31727C71.4266 4.11074 71.445 2.90477 71.5 1.69933C71.8423 1.98448 72.1173 2.31339 72.325 2.68604Z" fill="#1B1B1B"/>
  <path fill-rule="evenodd" clip-rule="evenodd" d="M77.935 5.86545C78.0219 5.72356 78.1319 5.59565 78.265 5.48173C77.1289 5.42693 75.9923 5.40866 74.855 5.42691C74.8733 4.29343 74.855 3.16055 74.8 2.02824C74.7579 2.0892 74.7029 2.12574 74.635 2.13788C74.6395 1.89171 74.7313 1.81863 74.91 1.91861C74.965 3.05091 74.9833 4.1838 74.965 5.31728C76.1756 5.29902 77.3856 5.3173 78.595 5.3721C78.4175 5.60525 78.1975 5.76971 77.935 5.86545Z" fill="#0D0D0E"/>
  <path fill-rule="evenodd" clip-rule="evenodd" d="M33.605 2.24751C33.5316 3.30731 33.4584 4.3671 33.385 5.42691C33.3667 4.29343 33.385 3.16054 33.44 2.02824C33.5189 2.0879 33.5739 2.16099 33.605 2.24751Z" fill="#C2C2C2"/>
  <path fill-rule="evenodd" clip-rule="evenodd" d="M40.095 5.53654C40.0584 5.64618 39.985 5.71927 39.875 5.75581C39.3537 6.11002 38.8771 6.53029 38.445 7.01661C38.804 7.43025 39.2073 7.77743 39.655 8.05814C39.8016 8.13123 39.9116 8.24086 39.985 8.38704C39.9972 8.45473 40.0338 8.50955 40.095 8.55149C38.9589 8.60629 37.8223 8.62456 36.685 8.60631C36.6116 9.70266 36.5384 10.799 36.465 11.8953C36.1716 11.5299 35.8416 11.201 35.475 10.9086C35.365 10.8721 35.2916 10.799 35.255 10.6894C35.2644 10.5254 35.1911 10.4158 35.035 10.3605C34.8383 10.4463 34.7283 10.5924 34.705 10.799C34.6316 10.9452 34.5216 11.0548 34.375 11.1279C34.049 11.3978 33.7373 11.6902 33.44 12.005C33.385 10.8727 33.3667 9.73979 33.385 8.60631C32.2477 8.62456 31.1111 8.60629 29.975 8.55149C30.1445 8.40116 30.2913 8.23671 30.415 8.05814C30.6624 7.99457 30.8457 7.84839 30.965 7.6196C31.1993 7.44121 31.4193 7.24022 31.625 7.01661C31.2296 6.56665 30.7896 6.18293 30.305 5.86545C30.2181 5.72356 30.1081 5.59565 29.975 5.48172C31.1111 5.42693 32.2477 5.40865 33.385 5.42691C33.4584 4.3671 33.5316 3.30731 33.605 2.24751C33.6416 2.24751 33.6784 2.24751 33.715 2.24751C34.0723 2.78684 34.5123 3.26193 35.035 3.67275C35.4483 3.37113 35.7783 3.00567 36.025 2.57641C36.025 2.50332 36.0616 2.46677 36.135 2.46677C36.3142 2.3434 36.4792 2.19723 36.63 2.02824C36.685 3.16054 36.7033 4.29343 36.685 5.42691C37.8415 5.39099 38.9782 5.42754 40.095 5.53654Z" fill="#FCFCFC"/>
  <path fill-rule="evenodd" clip-rule="evenodd" d="M77.935 5.86545C77.8616 6.01162 77.7516 6.12126 77.605 6.19435C77.2311 6.40137 76.9011 6.67546 76.615 7.01661C76.8648 7.32162 77.1581 7.55917 77.495 7.72923C77.605 7.76577 77.6784 7.83887 77.715 7.9485C77.8756 8.16369 78.059 8.3647 78.265 8.55149C77.1289 8.60629 75.9923 8.62456 74.855 8.60631C74.8732 9.73979 74.855 10.8727 74.8 12.005C74.5393 11.7266 74.2643 11.4708 73.975 11.2375C73.865 11.201 73.7916 11.1279 73.755 11.0183C73.659 10.7566 73.494 10.5374 73.26 10.3605C73.1811 10.4201 73.1261 10.4932 73.095 10.5797C73.095 10.6528 73.0584 10.6894 72.985 10.6894C72.545 11.0548 72.1416 11.4568 71.775 11.8953C71.7016 10.799 71.6284 9.70266 71.555 8.60631C70.4177 8.62456 69.2811 8.60629 68.145 8.55149C68.2061 8.50955 68.2428 8.45473 68.255 8.38704C68.813 7.99613 69.3264 7.53931 69.795 7.01661C69.2899 6.45749 68.7399 5.96414 68.145 5.53654C69.2986 5.42752 70.4719 5.39097 71.665 5.42691C71.6467 4.32995 71.665 3.2336 71.72 2.13787C71.9074 2.34326 72.1091 2.52599 72.325 2.68604C72.5349 3.07855 72.8281 3.40745 73.205 3.67275C73.7642 3.22548 74.2409 2.71386 74.635 2.13787C74.7029 2.12573 74.7579 2.08919 74.8 2.02824C74.855 3.16054 74.8732 4.29343 74.855 5.42691C75.9923 5.40865 77.1289 5.42693 78.265 5.48172C78.1319 5.59565 78.0219 5.72356 77.935 5.86545Z" fill="#FDFDFD"/>
  <path fill-rule="evenodd" clip-rule="evenodd" d="M74.635 2.13787C74.2409 2.71386 73.7643 3.22548 73.205 3.67275C72.8282 3.40745 72.5349 3.07855 72.325 2.68604C72.6162 2.9394 72.9096 3.19521 73.205 3.45349C73.684 3.01255 74.1606 2.57401 74.635 2.13787Z" fill="#272727"/>
  <path fill-rule="evenodd" clip-rule="evenodd" d="M33.715 2.24751C34.1528 2.64709 34.5928 3.04909 35.035 3.45349C35.3672 3.15868 35.6972 2.86633 36.025 2.57641C35.7783 3.00567 35.4483 3.37113 35.035 3.67275C34.5123 3.26193 34.0723 2.78684 33.715 2.24751Z" fill="#202021"/>
  <path fill-rule="evenodd" clip-rule="evenodd" d="M26.565 10.5797C26.675 10.6163 26.7484 10.6894 26.785 10.799C28.1725 12.3648 29.6392 13.8631 31.185 15.294C31.3684 15.4037 31.515 15.5498 31.625 15.7326C31.6106 15.8136 31.629 15.8867 31.68 15.9518C32.3865 16.7114 33.1382 17.4058 33.935 18.0349C34.1184 18.1445 34.265 18.2907 34.375 18.4734C34.5216 18.6927 34.705 18.8755 34.925 19.0216C35.035 19.0581 35.1084 19.1312 35.145 19.2409C35.3573 19.6356 35.6507 19.9645 36.025 20.2276C36.0888 20.4741 36.2354 20.6568 36.465 20.7757C36.6318 21.1083 36.8518 21.4007 37.125 21.6528C37.117 21.8202 37.1903 21.9299 37.345 21.9817C37.51 22.3844 37.73 22.7498 38.005 23.0781C38.0959 23.4053 38.2425 23.6976 38.445 23.9552C38.4678 24.2557 38.5778 24.5114 38.775 24.7226C39.0821 25.7277 39.3204 26.7509 39.49 27.7924C39.5704 28.763 39.552 29.7314 39.435 30.6977C39.5223 31.9364 39.779 33.1241 40.205 34.2608C40.1785 34.5237 40.2519 34.743 40.425 34.9186C40.4659 35.3349 40.6127 35.7003 40.865 36.015C41.0439 36.6639 41.3372 37.2487 41.745 37.7691C41.7725 38.0075 41.8825 38.1902 42.075 38.3173C42.067 38.4847 42.1403 38.5943 42.295 38.6462C42.287 38.8136 42.3603 38.9232 42.515 38.9751C42.5412 39.1838 42.6512 39.3301 42.845 39.4136C42.9461 39.6975 43.1295 39.9167 43.395 40.0714C43.5416 40.4368 43.7984 40.6927 44.165 40.8389C44.3202 41.1035 44.5402 41.2863 44.825 41.387C44.9682 41.6416 45.1882 41.7878 45.485 41.8256C45.6125 42.0174 45.7959 42.1271 46.035 42.1545C46.1441 42.1356 46.2174 42.1722 46.255 42.2641C46.713 42.5748 47.2264 42.7576 47.795 42.8123C49.487 43.2334 51.1738 43.1421 52.855 42.5382C52.9803 41.9444 52.9987 41.3414 52.91 40.7292C52.7695 40.4829 52.6045 40.2636 52.415 40.0714C52.3228 40.0339 52.2861 39.9609 52.305 39.8522C51.9653 38.7386 51.8921 37.6057 52.085 36.4535C52.2572 36.2332 52.3672 35.9773 52.415 35.686C52.6684 35.3965 52.9252 35.1041 53.185 34.809C54.1153 34.3861 54.9036 34.5689 55.55 35.3571C55.7176 35.62 55.8826 35.8758 56.045 36.1246C56.1444 36.2023 56.1811 36.312 56.155 36.4535C56.3479 37.6057 56.2747 38.7386 55.935 39.8522C55.9539 39.9609 55.9172 40.0339 55.825 40.0714C55.6355 40.2636 55.4705 40.4829 55.33 40.7292C55.2413 41.3414 55.2597 41.9444 55.385 42.5382C57.0636 43.0719 58.7502 43.1633 60.445 42.8123C61.0136 42.7576 61.527 42.5748 61.985 42.2641C62.0226 42.1722 62.0959 42.1356 62.205 42.1545C62.4441 42.1271 62.6275 42.0174 62.755 41.8256C63.0518 41.7878 63.2718 41.6416 63.415 41.387C63.6998 41.2863 63.9198 41.1035 64.075 40.8389C64.4416 40.6927 64.6984 40.4368 64.845 40.0714C65.1105 39.9167 65.2939 39.6975 65.395 39.4136C65.5888 39.3301 65.6988 39.1838 65.725 38.9751C65.8797 38.9232 65.953 38.8136 65.945 38.6462C66.0997 38.5943 66.173 38.4847 66.165 38.3173C66.3575 38.1902 66.4675 38.0075 66.495 37.7691C66.9028 37.2487 67.1961 36.6639 67.375 36.015C67.6273 35.7003 67.7741 35.3349 67.815 34.9186C67.9881 34.743 68.0615 34.5237 68.035 34.2608C68.3704 33.5415 68.5538 32.774 68.585 31.9585C68.6886 31.5589 68.7619 31.1386 68.805 30.6977C68.688 29.7314 68.6696 28.763 68.75 27.7924C68.9196 26.7509 69.1579 25.7277 69.465 24.7226C69.6622 24.5114 69.7722 24.2557 69.795 23.9552C69.8859 23.6279 70.0325 23.3356 70.235 23.0781C70.51 22.7498 70.73 22.3844 70.895 21.9817C71.0497 21.9299 71.123 21.8202 71.115 21.6528C71.3088 21.5693 71.4188 21.423 71.445 21.2143C71.6388 21.1307 71.7488 20.9845 71.775 20.7757C72.0046 20.6568 72.1512 20.4741 72.215 20.2276C72.6257 19.9282 72.9557 19.5628 73.205 19.1312C73.205 19.0581 73.2416 19.0216 73.315 19.0216C73.535 18.8755 73.7184 18.6927 73.865 18.4734C74.1498 18.3727 74.3698 18.1899 74.525 17.9253C75.338 17.2248 76.0713 16.4574 76.725 15.6229C76.7984 15.4768 76.9084 15.3671 77.055 15.294C78.5642 13.8997 79.9942 12.4378 81.345 10.9086C81.5924 10.8451 81.7757 10.6989 81.895 10.4701C84.131 8.22328 86.3492 5.95751 88.55 3.67276C88.8303 5.6723 88.7019 7.64572 88.165 9.59303C88.2239 9.76858 88.3339 9.8234 88.495 9.75748C89.1349 9.32015 89.7216 8.82679 90.255 8.27741C90.5024 8.21384 90.6857 8.06767 90.805 7.83887C90.9843 9.51841 90.7643 11.1629 90.145 12.7724C90.1586 12.839 90.1953 12.8755 90.255 12.8821C90.2865 13.1488 90.3597 13.1488 90.475 12.8821C90.9382 12.6594 91.3598 12.367 91.74 12.005C91.8123 13.4584 91.6473 14.8837 91.245 16.2807C91.0425 16.5383 90.8959 16.8306 90.805 17.1578C90.6503 17.2097 90.577 17.3193 90.585 17.4867C90.585 17.5232 90.585 17.5598 90.585 17.5963C90.8254 17.6607 91.0087 17.5511 91.135 17.2674C91.457 17.1296 91.7137 16.9104 91.905 16.6096C92.1898 16.5089 92.4098 16.3261 92.565 16.0615C92.7319 16.0603 92.8602 15.9872 92.95 15.8422C92.9684 16.025 92.9866 16.2076 93.005 16.3904C92.9061 17.4058 92.6861 18.3925 92.345 19.3505C92.1478 19.5617 92.0378 19.8174 92.015 20.1179C91.9974 20.2992 91.9241 20.4453 91.795 20.5565C91.6546 20.6536 91.6546 20.7633 91.795 20.8854C91.8618 20.8718 91.8984 20.8353 91.905 20.7757C92.073 20.7838 92.183 20.7106 92.235 20.5565C92.4444 20.5304 92.5912 20.4208 92.675 20.2276C92.843 20.2356 92.953 20.1625 93.005 20.0083C93.3207 19.906 93.5774 19.7233 93.775 19.4601C93.9448 19.4379 94.0916 19.3648 94.215 19.2409C94.2516 19.2957 94.2884 19.3505 94.325 19.4053C94.2162 19.7832 94.1428 20.1669 94.105 20.5565C93.8955 20.9639 93.7487 21.4024 93.665 21.8721C93.3152 22.5137 92.9486 23.1532 92.565 23.7907C92.7436 24.0121 92.8903 23.9937 93.005 23.7359C93.0426 23.644 93.1159 23.6074 93.225 23.6262C93.6091 23.5265 93.9391 23.3438 94.215 23.0781C94.2526 22.9862 94.3259 22.9496 94.435 22.9684C94.5541 22.9642 94.6641 22.9275 94.765 22.8588C94.8016 22.9684 94.8384 23.0781 94.875 23.1877C94.7353 23.8608 94.5519 24.5186 94.325 25.1611C94.1959 25.2723 94.1226 25.4184 94.105 25.5997C94.1239 25.7084 94.0872 25.7814 93.995 25.8189C93.6935 26.0903 93.4735 26.4192 93.335 26.8056C93.1412 26.8892 93.0312 27.0354 93.005 27.2442C92.6168 27.3316 92.5986 27.4412 92.95 27.5731C93.738 27.2382 94.5447 26.9458 95.37 26.696C95.4833 26.7329 95.5383 26.806 95.535 26.9153C95.3471 27.2935 95.2005 27.6956 95.095 28.1213C94.9291 28.3056 94.8191 28.5248 94.765 28.7791C94.5725 28.9061 94.4625 29.0889 94.435 29.3272C94.2803 29.3791 94.207 29.4887 94.215 29.6561C93.9418 29.9083 93.7218 30.2007 93.555 30.5332C93.3612 30.6168 93.2512 30.763 93.225 30.9718C93.225 31.0449 93.2616 31.0814 93.335 31.0814C94.0007 30.9904 94.6791 30.8076 95.37 30.5332C95.3679 30.7094 95.3497 30.8922 95.315 31.0814C95.1125 31.3389 94.9659 31.6312 94.875 31.9585C94.6741 32.139 94.5274 32.3583 94.435 32.6163C94.2054 32.7352 94.0588 32.9179 93.995 33.1645C93.9584 33.2741 93.885 33.3472 93.775 33.3837C93.5184 33.5665 93.2984 33.7858 93.115 34.0415C93.0784 34.1512 93.005 34.2243 92.895 34.2608C92.8353 34.2674 92.7986 34.3039 92.785 34.3704C93.0234 34.4069 93.2616 34.4436 93.5 34.4801C94.1046 34.3996 94.7096 34.3814 95.315 34.4253C95.2229 34.5361 95.1863 34.664 95.205 34.809C95.2239 34.9177 95.1872 34.9907 95.095 35.0282C94.9025 35.1553 94.7925 35.3381 94.765 35.5764C94.5712 35.66 94.4612 35.8062 94.435 36.015C94.2054 36.1339 94.0588 36.3166 93.995 36.5631C93.995 36.6362 93.9584 36.6728 93.885 36.6728C93.504 36.9975 93.1373 37.3447 92.785 37.7143C92.8873 37.8229 93.0156 37.8778 93.17 37.8787C93.7024 37.8016 94.2341 37.7284 94.765 37.6595C94.7284 37.8787 94.6916 38.098 94.655 38.3173C94.6374 38.4985 94.5641 38.6446 94.435 38.7558C94.2341 38.9364 94.0874 39.1557 93.995 39.4136C93.5916 39.7425 93.225 40.1079 92.895 40.51C92.6476 40.5736 92.4644 40.7197 92.345 40.9485C92.0332 41.0109 91.8499 41.1936 91.795 41.4967C92.5291 41.4733 93.2625 41.4368 93.995 41.387C93.995 41.4967 93.995 41.6063 93.995 41.716C94.0139 41.8247 93.9772 41.8977 93.885 41.9352C93.6841 42.1158 93.5374 42.3351 93.445 42.593C93.445 42.6661 93.4084 42.7027 93.335 42.7027C93.115 42.8488 92.9316 43.0316 92.785 43.2508C92.785 43.324 92.7484 43.3605 92.675 43.3605C92.2242 43.607 91.7842 43.8811 91.355 44.1827C91.2629 44.2936 91.2263 44.4215 91.245 44.5664C91.7267 44.5892 92.2034 44.5527 92.675 44.4568C92.7484 44.4933 92.8216 44.5299 92.895 44.5664C92.6699 45.0653 92.3399 45.4855 91.905 45.8272C91.2044 46.2491 90.5078 46.6693 89.815 47.088C90.508 47.0863 91.2046 47.1228 91.905 47.1977C91.7885 47.4207 91.6785 47.6399 91.575 47.8555C90.7541 48.6734 89.8374 49.3678 88.825 49.9385C89.3384 50.0117 89.8516 50.0847 90.365 50.1578C90.296 50.2583 90.2593 50.368 90.255 50.4867C89.925 50.7425 89.6316 51.0349 89.375 51.3638C88.6235 51.7197 87.8535 52.0486 87.065 52.3505C86.9296 52.4767 86.9296 52.6045 87.065 52.7342C87.4277 52.7566 87.7577 52.8479 88.055 53.0083C87.1838 53.8958 86.1204 54.4075 84.865 54.5432C84.8284 54.5432 84.7916 54.5432 84.755 54.5432C84.5787 54.5226 84.4319 54.5774 84.315 54.7076C85.0065 54.8956 85.7031 55.06 86.405 55.201C86.2885 55.424 86.1785 55.6433 86.075 55.8588C85.965 55.8953 85.8916 55.9684 85.855 56.0781C85.3831 56.3674 84.8698 56.5685 84.315 56.6811C83.6155 56.6996 82.9188 56.7544 82.225 56.8455C82.9443 57.2014 83.6777 57.5485 84.425 57.887C83.1939 58.4802 81.9105 58.7909 80.575 58.8189C81.2132 59.0426 81.8732 59.3167 82.555 59.6412C81.4787 60.1541 80.342 60.3733 79.145 60.299C79.1084 60.3355 79.0716 60.3721 79.035 60.4086C79.5659 60.6549 80.0791 60.929 80.575 61.2309C80.3956 61.4279 80.1756 61.5559 79.915 61.6146C79.1959 61.6392 78.4809 61.694 77.77 61.7791C77.5641 61.7168 77.3625 61.6437 77.165 61.5598C76.9702 61.6185 76.9336 61.7099 77.055 61.8339C77.4869 61.9465 77.8902 62.1109 78.265 62.3272C78.4234 62.5342 78.6067 62.717 78.815 62.8754C77.8811 63.1496 76.9461 63.1496 76.01 62.8754C75.9275 62.944 75.8358 62.9989 75.735 63.0399C75.9086 63.1598 76.092 63.2512 76.285 63.314C76.5029 63.5116 76.7413 63.6944 77 63.8621C77.065 63.9699 77.0283 64.043 76.89 64.0814C76.3333 64.2372 75.7649 64.3102 75.185 64.3007C74.5966 64.2539 74.0099 64.2355 73.425 64.2458C73.6935 64.4044 73.9869 64.4957 74.305 64.5199C74.6141 64.8089 74.9441 65.083 75.295 65.3422C74.8497 65.5559 74.3731 65.6472 73.865 65.6163C73.0886 65.601 72.337 65.4549 71.61 65.1777C71.4935 65.192 71.4019 65.2468 71.335 65.3422C72.0261 65.5737 72.5761 65.994 72.985 66.603C71.9689 66.8623 70.9606 66.8257 69.96 66.4934C69.905 66.5482 69.85 66.603 69.795 66.6578C70.125 66.9867 70.455 67.3156 70.785 67.6445C69.6204 68.037 68.5021 67.9456 67.43 67.3704C67.218 67.5088 67.2364 67.6184 67.485 67.6993C67.485 67.7725 67.5216 67.809 67.595 67.809C67.7923 68.0608 68.0123 68.2983 68.255 68.5216C66.839 68.8136 65.5556 68.503 64.405 67.5897C64.2859 67.6845 64.2676 67.7942 64.35 67.9186C64.5391 68.2243 64.7774 68.48 65.065 68.6861C65.1045 68.8912 65.2145 69.0556 65.395 69.1794C64.3172 69.3749 63.3272 69.1738 62.425 68.5764C62.2416 68.3206 62.0216 68.1014 61.765 67.9186C61.3714 67.244 61.0048 66.5497 60.665 65.8355C60.6075 66.1654 60.6625 66.4943 60.83 66.8223C63.1109 72.9295 65.4025 79.0325 67.705 85.1312C67.1497 85.2151 66.5997 85.1603 66.055 84.9668C65.3477 84.7421 64.6877 84.4314 64.075 84.0349C64.0016 84.0532 63.9284 84.0714 63.855 84.0897C64.1005 84.6953 64.3572 85.2983 64.625 85.8987C63.9495 86.0517 63.2895 85.9969 62.645 85.7342C62.1804 85.4851 61.7404 85.211 61.325 84.912C61.2384 84.7361 61.0918 84.663 60.885 84.6927C61.1186 85.4644 61.3753 86.2318 61.655 86.995C61.1304 87.0481 60.6172 86.9566 60.115 86.7209C59.5945 86.4625 59.1179 86.1519 58.685 85.789C58.5475 85.5224 58.3825 85.2665 58.19 85.0216C58.0679 84.8531 57.9029 84.7801 57.695 84.8023C57.87 85.6377 58.0166 86.4782 58.135 87.3239C57.3318 87.1247 56.5985 86.7775 55.935 86.2824C55.2446 85.6499 54.6214 84.9739 54.065 84.2542C53.7243 84.5578 53.4676 84.9233 53.295 85.3505C52.7788 85.8286 52.2655 86.3038 51.755 86.7757C51.2192 87.044 50.6692 87.245 50.105 87.3787C50.2565 86.6336 50.4032 85.8843 50.545 85.1312C50.3752 84.8526 50.2285 84.8526 50.105 85.1312C49.8754 85.2502 49.7288 85.4328 49.665 85.6794C49.6284 85.789 49.555 85.8622 49.445 85.8987C48.6706 86.549 47.7723 86.951 46.75 87.1047C46.695 87.0681 46.64 87.0315 46.585 86.995C46.8201 86.2923 47.0767 85.5978 47.355 84.912C47.1357 84.634 46.9523 84.6707 46.805 85.0216C46.3348 85.3593 45.8214 85.6334 45.265 85.8439C44.7174 86.0082 44.1674 86.0265 43.615 85.8987C43.8166 85.4236 44.0184 84.9485 44.22 84.4734C44.3051 84.2648 44.2684 84.082 44.11 83.9252C43.075 84.7807 41.8834 85.2011 40.535 85.1861C42.9504 78.8229 45.3338 72.4459 47.685 66.0548C47.6484 65.9817 47.6116 65.9087 47.575 65.8355C47.2352 66.5497 46.8686 67.244 46.475 67.9186C45.497 68.9806 44.287 69.4009 42.845 69.1794C43.0255 69.0556 43.1355 68.8912 43.175 68.6861C43.4627 68.48 43.7009 68.2243 43.89 67.9186C43.9724 67.7942 43.9541 67.6845 43.835 67.5897C42.6768 68.4723 41.3934 68.7829 39.985 68.5216C40.2277 68.2983 40.4477 68.0608 40.645 67.809C40.7184 67.809 40.755 67.7725 40.755 67.6993C41.0036 67.6184 41.022 67.5088 40.81 67.3704C40.2114 67.7387 39.5514 67.9215 38.83 67.9186C38.3512 67.8847 37.8929 67.7934 37.455 67.6445C37.785 67.3156 38.115 66.9867 38.445 66.6578C38.39 66.603 38.335 66.5482 38.28 66.4934C37.3614 66.7677 36.4264 66.8408 35.475 66.7126C35.3175 66.6871 35.2625 66.614 35.31 66.4934C35.7211 65.9366 36.2527 65.5529 36.905 65.3422C36.8381 65.2468 36.7465 65.192 36.63 65.1777C35.5802 65.5709 34.4985 65.6988 33.385 65.5615C33.2152 65.5297 33.0685 65.4567 32.945 65.3422C33.2959 65.083 33.6259 64.8089 33.935 64.5199C34.2531 64.4957 34.5465 64.4044 34.815 64.2458C34.2119 64.2371 33.6069 64.2553 33 64.3007C32.4369 64.3155 31.8869 64.2423 31.35 64.0814C31.2117 64.043 31.175 63.9699 31.24 63.8621C31.4987 63.6944 31.7371 63.5116 31.955 63.314C32.1481 63.2512 32.3314 63.1598 32.505 63.0399C32.4042 62.9989 32.3125 62.944 32.23 62.8754C31.2939 63.1496 30.3589 63.1496 29.425 62.8754C29.6333 62.717 29.8166 62.5342 29.975 62.3272C30.4076 62.1162 30.8476 61.9152 31.295 61.7243C31.2373 61.6484 31.1639 61.5936 31.075 61.5598C30.8311 61.6773 30.5745 61.7505 30.305 61.7791C29.6472 61.7024 28.9872 61.6476 28.325 61.6146C28.0644 61.5559 27.8444 61.4279 27.665 61.2309C28.1609 60.929 28.6741 60.6549 29.205 60.4086C29.1684 60.3721 29.1316 60.3355 29.095 60.299C27.8961 60.3818 26.7595 60.1625 25.685 59.6412C26.3668 59.3167 27.0268 59.0426 27.665 58.8189C26.3285 58.7967 25.0451 58.4861 23.815 57.887C24.5531 57.5505 25.2864 57.2033 26.015 56.8455C25.2844 56.7544 24.551 56.6996 23.815 56.6811C23.3072 56.5372 22.8306 56.3363 22.385 56.0781C22.3484 55.9684 22.275 55.8953 22.165 55.8588C22.0615 55.6433 21.9515 55.424 21.835 55.201C22.5309 55.0367 23.2275 54.8722 23.925 54.7076C23.8081 54.5774 23.6613 54.5226 23.485 54.5432C23.4484 54.5432 23.4116 54.5432 23.375 54.5432C22.1196 54.4075 21.0562 53.8958 20.185 53.0083C20.4895 52.8584 20.8195 52.7488 21.175 52.6794C21.3216 52.5698 21.3216 52.4601 21.175 52.3505C20.3865 52.0486 19.6165 51.7197 18.865 51.3638C18.6084 51.0349 18.315 50.7425 17.985 50.4867C17.9807 50.368 17.944 50.2583 17.875 50.1578C18.3884 50.0847 18.9016 50.0117 19.415 49.9385C18.4026 49.3678 17.4859 48.6734 16.665 47.8555C16.5615 47.6399 16.4515 47.4207 16.335 47.1977C17.0354 47.1228 17.732 47.0863 18.425 47.088C17.7322 46.6693 17.0356 46.2491 16.335 45.8272C15.9001 45.4855 15.5701 45.0653 15.345 44.5664C15.4184 44.5299 15.4916 44.4933 15.565 44.4568C16.0366 44.5527 16.5133 44.5892 16.995 44.5664C17.0137 44.4215 16.9771 44.2936 16.885 44.1827C16.4021 43.8698 15.9254 43.5592 15.455 43.2508C15.3084 43.0316 15.125 42.8488 14.905 42.7027C14.8316 42.7027 14.795 42.6661 14.795 42.593C14.7026 42.3351 14.5559 42.1158 14.355 41.9352C14.2628 41.8977 14.2261 41.8247 14.245 41.716C14.245 41.6063 14.245 41.4967 14.245 41.387C14.9768 41.4478 15.7102 41.4844 16.445 41.4967C16.3901 41.1936 16.2069 41.0109 15.895 40.9485C15.7757 40.7197 15.5924 40.5736 15.345 40.51C15.015 40.1079 14.6484 39.7425 14.245 39.4136C14.1526 39.1557 14.0059 38.9364 13.805 38.7558C13.6759 38.6446 13.6026 38.4985 13.585 38.3173C13.5484 38.098 13.5116 37.8787 13.475 37.6595C14.0059 37.7284 14.5376 37.8016 15.07 37.8787C15.2244 37.8778 15.3527 37.8229 15.455 37.7143C15.1027 37.3447 14.736 36.9975 14.355 36.6728C14.2816 36.6728 14.245 36.6362 14.245 36.5631C14.1812 36.3166 14.0346 36.1339 13.805 36.015C13.7788 35.8062 13.6688 35.66 13.475 35.5764C13.4475 35.3381 13.3375 35.1553 13.145 35.0282C13.0528 34.9907 13.0161 34.9177 13.035 34.809C13.0537 34.664 13.0171 34.5361 12.925 34.4253C13.7601 34.3865 14.5851 34.4414 15.4 34.5897C15.5185 34.2869 15.4268 34.1042 15.125 34.0415C14.9416 33.7858 14.7216 33.5665 14.465 33.3837C14.355 33.3472 14.2816 33.2741 14.245 33.1645C14.1812 32.9179 14.0346 32.7352 13.805 32.6163C13.7126 32.3583 13.5659 32.139 13.365 31.9585C13.2741 31.6312 13.1275 31.3389 12.925 31.0814C12.8904 30.8922 12.8721 30.7094 12.87 30.5332C13.5609 30.8076 14.2393 30.9904 14.905 31.0814C14.9784 31.0814 15.015 31.0449 15.015 30.9718C14.9888 30.763 14.8788 30.6168 14.685 30.5332C14.5182 30.2007 14.2982 29.9083 14.025 29.6561C14.033 29.4887 13.9597 29.3791 13.805 29.3272C13.7775 29.0889 13.6675 28.9061 13.475 28.7791C13.4209 28.5248 13.3109 28.3056 13.145 28.1213C13.0395 27.6956 12.8929 27.2935 12.705 26.9153C12.7017 26.806 12.7567 26.7329 12.87 26.696C13.6953 26.9458 14.502 27.2382 15.29 27.5731C15.6415 27.4412 15.6232 27.3316 15.235 27.2442C15.2088 27.0354 15.0988 26.8892 14.905 26.8056C14.7665 26.4192 14.5465 26.0903 14.245 25.8189C14.1528 25.7814 14.1161 25.7084 14.135 25.5997C14.1174 25.4184 14.0441 25.2723 13.915 25.1611C13.6881 24.5186 13.5047 23.8608 13.365 23.1877C13.4016 23.0781 13.4384 22.9684 13.475 22.8588C13.5759 22.9275 13.6859 22.9642 13.805 22.9684C13.9141 22.9496 13.9874 22.9862 14.025 23.0781C14.3746 23.3804 14.778 23.5997 15.235 23.7359C15.3497 23.9937 15.4964 24.0121 15.675 23.7907C15.2914 23.1532 14.9248 22.5137 14.575 21.8721C14.4913 21.4024 14.3446 20.9639 14.135 20.5565C14.0972 20.1669 14.0238 19.7832 13.915 19.4053C13.9516 19.3505 13.9884 19.2957 14.025 19.2409C14.1484 19.3648 14.2952 19.4379 14.465 19.4601C14.6626 19.7233 14.9193 19.906 15.235 20.0083C15.287 20.1625 15.397 20.2356 15.565 20.2276C15.6488 20.4208 15.7956 20.5304 16.005 20.5565C16.057 20.7106 16.167 20.7838 16.335 20.7757C16.4232 20.9276 16.4966 20.9093 16.555 20.7209C16.5473 20.6371 16.5107 20.5822 16.445 20.5565C16.3159 20.4453 16.2426 20.2992 16.225 20.1179C16.2022 19.8174 16.0922 19.5617 15.895 19.3505C15.5539 18.3925 15.3339 17.4058 15.235 16.3904C15.2534 16.2076 15.2716 16.025 15.29 15.8422C15.3798 15.9872 15.5081 16.0603 15.675 16.0615C15.8302 16.3261 16.0502 16.5089 16.335 16.6096C16.4902 16.8743 16.7102 17.0571 16.995 17.1578C17.1393 17.3748 17.3227 17.5574 17.545 17.706C17.6339 17.6722 17.7073 17.6174 17.765 17.5415C17.6921 17.3751 17.5821 17.2472 17.435 17.1578C17.3441 16.8306 17.1975 16.5383 16.995 16.2807C16.5927 14.8837 16.4277 13.4584 16.5 12.005C16.9453 12.4124 17.422 12.7779 17.93 13.1013C17.985 12.9917 18.04 12.8821 18.095 12.7724C17.4953 11.181 17.2569 9.53651 17.38 7.83887C18.1684 8.4784 18.9566 9.11795 19.745 9.75748C19.9062 9.8234 20.0162 9.76858 20.075 9.59303C19.5381 7.64572 19.4097 5.6723 19.69 3.67276C21.9274 6.0306 24.219 8.33293 26.565 10.5797Z" fill="#FEFEFE"/>
  <path fill-rule="evenodd" clip-rule="evenodd" d="M49.555 4.22093C50.8715 5.62474 52.1731 7.04999 53.46 8.49668C53.7327 8.77833 54.0261 9.03414 54.34 9.26412C54.8497 8.86592 55.3264 8.42738 55.77 7.94851C56.866 6.67315 58.0028 5.43063 59.18 4.22093C59.235 7.50976 59.2534 10.7988 59.235 14.088C62.6452 14.0697 66.0552 14.088 69.465 14.1429C67.7223 15.7155 65.9989 17.3052 64.295 18.912C65.9289 20.5588 67.6156 22.1485 69.355 23.6811C65.9818 23.7359 62.6085 23.7542 59.235 23.7359C59.2534 27.0982 59.235 30.4603 59.18 33.8223C57.6423 32.0886 56.0473 30.4076 54.395 28.7791C53.9614 29.0464 53.5764 29.3753 53.24 29.7658C52.0706 31.1143 50.8606 32.4299 49.61 33.7126C49.555 30.3872 49.5366 27.0616 49.555 23.7359C46.1081 23.7542 42.6615 23.7359 39.215 23.6811C40.9847 22.1414 42.708 20.5517 44.385 18.912C42.6782 17.3021 40.9549 15.7124 39.215 14.1429C42.6615 14.088 46.1081 14.0697 49.555 14.088C49.555 10.799 49.555 7.50997 49.555 4.22093Z" fill="#0A0807"/>
  <path fill-rule="evenodd" clip-rule="evenodd" d="M58.575 5.42691C58.6484 6.70598 58.7216 7.98505 58.795 9.26412C58.795 10.9818 58.795 12.6993 58.795 14.4169C61.9859 14.3804 65.1759 14.4169 68.365 14.5266C66.8459 16.0413 65.3059 17.5032 63.745 18.912C65.2702 20.4302 66.8102 21.892 68.365 23.2973C65.1759 23.407 61.9859 23.4435 58.795 23.407C58.8134 26.5135 58.795 29.6199 58.74 32.7259C57.2672 31.1852 55.8006 29.6503 54.34 28.1213C52.8715 29.6396 51.4232 31.1745 49.995 32.7259C49.885 29.6205 49.8484 26.5141 49.885 23.407C46.6948 23.4253 43.5048 23.407 40.315 23.3522C41.8825 21.8741 43.4591 20.394 45.045 18.912C43.4488 17.4489 41.8722 15.9688 40.315 14.4718C43.5414 14.4169 46.7682 14.3986 49.995 14.4169C49.9766 11.3835 49.995 8.35028 50.05 5.31728C51.1862 6.44323 52.2496 7.61267 53.24 8.82558C53.5778 9.20326 53.9628 9.53217 54.395 9.81229C55.8148 8.39664 57.2081 6.93485 58.575 5.42691Z" fill="#DD2525"/>
  <path fill-rule="evenodd" clip-rule="evenodd" d="M58.795 9.26412C58.7216 7.98505 58.6484 6.70598 58.575 5.42691C58.6061 5.3404 58.6611 5.2673 58.74 5.20764C58.795 6.5593 58.8134 7.91147 58.795 9.26412Z" fill="#A31D1D"/>
  <path opacity="0.859" fill-rule="evenodd" clip-rule="evenodd" d="M90.255 8.27741C89.7216 8.82679 89.1349 9.32015 88.495 9.75748C88.3339 9.8234 88.2239 9.76858 88.165 9.59303C88.7019 7.64572 88.8303 5.6723 88.55 3.67276C86.3492 5.95751 84.131 8.22329 81.895 10.4701C81.8584 10.4701 81.8216 10.4701 81.785 10.4701C82.8017 9.29193 83.8834 8.15904 85.03 7.07143C85.2438 6.67566 85.5005 6.31022 85.8 5.97509C86.9366 5.13455 87.9266 4.14784 88.77 3.01495C88.796 3.26317 88.851 3.50071 88.935 3.72758C88.8616 4.89702 88.7884 6.06645 88.715 7.23588C88.8544 7.86009 88.8176 8.48134 88.605 9.09967C88.6234 9.15449 88.6416 9.20931 88.66 9.26412C89.1015 8.78332 89.6332 8.45442 90.255 8.27741Z" fill="#161617"/>
  <path fill-rule="evenodd" clip-rule="evenodd" d="M39.875 5.75581C39.4941 6.19044 39.0907 6.61071 38.665 7.01661C39.0174 7.34945 39.3474 7.69663 39.655 8.05814C39.2073 7.77743 38.804 7.43025 38.445 7.01661C38.8771 6.53029 39.3537 6.11002 39.875 5.75581Z" fill="#171718"/>
  <path fill-rule="evenodd" clip-rule="evenodd" d="M68.145 5.53654C68.7399 5.96414 69.2899 6.4575 69.795 7.01661C69.3264 7.53932 68.813 7.99613 68.255 8.38704C68.6725 7.91586 69.1125 7.45905 69.575 7.01661C69.0759 6.53764 68.5993 6.04428 68.145 5.53654Z" fill="#212121"/>
  <path fill-rule="evenodd" clip-rule="evenodd" d="M30.305 5.86545C30.7895 6.18293 31.2295 6.56665 31.625 7.01661C31.4193 7.24022 31.1993 7.44121 30.965 7.6196C30.9284 7.6196 30.8916 7.6196 30.855 7.6196C31.0156 7.40441 31.199 7.20341 31.405 7.01661C31.0159 6.64724 30.6492 6.26352 30.305 5.86545Z" fill="#1F1F20"/>
  <path fill-rule="evenodd" clip-rule="evenodd" d="M77.605 6.19435C77.3709 6.48272 77.1143 6.75681 76.835 7.01661C77.0777 7.2399 77.2977 7.47745 77.495 7.72923C77.1581 7.55917 76.8648 7.32162 76.615 7.01661C76.9011 6.67546 77.2311 6.40137 77.605 6.19435Z" fill="#1D1D1E"/>
  <path fill-rule="evenodd" clip-rule="evenodd" d="M30.855 7.6196C30.8916 7.6196 30.9284 7.6196 30.965 7.6196C30.8457 7.84839 30.6624 7.99457 30.415 8.05814C30.525 7.87541 30.6716 7.72923 30.855 7.6196Z" fill="#646464"/>
  <path fill-rule="evenodd" clip-rule="evenodd" d="M90.805 7.83887C90.6857 8.06766 90.5024 8.21384 90.255 8.27741C90.3744 8.04861 90.5576 7.90243 90.805 7.83887Z" fill="#1F1F20"/>
  <path fill-rule="evenodd" clip-rule="evenodd" d="M77.715 7.9485C78.0519 8.11857 78.3452 8.35611 78.595 8.66113C77.3856 8.71592 76.1756 8.7342 74.965 8.71594C74.9834 9.92247 74.965 11.1285 74.91 12.3339C74.5314 12.0124 74.2198 11.647 73.975 11.2375C74.2643 11.4708 74.5393 11.7266 74.8 12.005C74.855 10.8727 74.8733 9.73979 74.855 8.60631C75.9923 8.62456 77.1289 8.60629 78.265 8.55149C78.059 8.3647 77.8756 8.16369 77.715 7.9485Z" fill="#0E0E0F"/>
  <path fill-rule="evenodd" clip-rule="evenodd" d="M30.415 8.05814C30.2913 8.23671 30.1445 8.40116 29.975 8.55149C31.1111 8.60629 32.2477 8.62456 33.385 8.60631C33.3667 9.73979 33.385 10.8727 33.44 12.005C33.7373 11.6902 34.049 11.3978 34.375 11.1279C34.0934 11.5741 33.745 11.976 33.33 12.3339C33.275 11.1285 33.2566 9.92247 33.275 8.71594C32.0645 8.7342 30.8545 8.71592 29.645 8.66113C29.8585 8.39213 30.1153 8.19112 30.415 8.05814Z" fill="#0E0E0F"/>
  <path fill-rule="evenodd" clip-rule="evenodd" d="M39.985 8.38704C40.1716 8.40737 40.3182 8.49872 40.425 8.66113C39.2155 8.71592 38.0055 8.7342 36.795 8.71594C36.8134 9.92247 36.795 11.1285 36.74 12.3339C36.625 12.2382 36.5334 12.1285 36.465 12.005C36.6822 10.9146 36.7556 9.78168 36.685 8.60631C37.8223 8.62456 38.9589 8.60629 40.095 8.55149C40.0338 8.50954 39.9972 8.45473 39.985 8.38704Z" fill="#0E0E0F"/>
  <path fill-rule="evenodd" clip-rule="evenodd" d="M68.255 8.38704C68.2428 8.45473 68.2062 8.50954 68.145 8.55149C69.2811 8.60629 70.4177 8.62456 71.555 8.60631C71.4844 9.78168 71.5578 10.9146 71.775 12.005C71.7066 12.1285 71.615 12.2382 71.5 12.3339C71.445 11.1285 71.4266 9.92247 71.445 8.71594C70.2345 8.7342 69.0245 8.71592 67.815 8.66113C67.9218 8.49872 68.0684 8.40737 68.255 8.38704Z" fill="#0E0E0F"/>
  <path fill-rule="evenodd" clip-rule="evenodd" d="M36.685 8.60632C36.7556 9.78169 36.6822 10.9146 36.465 12.005C36.465 11.9685 36.465 11.9319 36.465 11.8954C36.5384 10.799 36.6116 9.70266 36.685 8.60632Z" fill="#868686"/>
  <path fill-rule="evenodd" clip-rule="evenodd" d="M71.555 8.60632C71.6284 9.70266 71.7016 10.799 71.775 11.8954C71.775 11.9319 71.775 11.9685 71.775 12.005C71.5578 10.9146 71.4844 9.78169 71.555 8.60632Z" fill="#4A4A4B"/>
  <path opacity="0.941" fill-rule="evenodd" clip-rule="evenodd" d="M90.255 12.8821C90.1953 12.8755 90.1586 12.839 90.145 12.7724C90.7643 11.1629 90.9843 9.5184 90.805 7.83887C90.8361 7.75235 90.8911 7.67926 90.97 7.6196C91.0434 8.75249 91.0434 9.88538 90.97 11.0183C90.8516 11.6915 90.6133 12.3127 90.255 12.8821Z" fill="#151516"/>
  <path fill-rule="evenodd" clip-rule="evenodd" d="M35.255 10.6894C35.0462 10.554 34.8629 10.5906 34.705 10.799C34.7283 10.5924 34.8383 10.4463 35.035 10.3605C35.1911 10.4158 35.2644 10.5254 35.255 10.6894Z" fill="#323233"/>
  <path fill-rule="evenodd" clip-rule="evenodd" d="M73.755 11.0183C73.5629 10.8262 73.3429 10.6801 73.095 10.5797C73.1261 10.4932 73.1811 10.4201 73.26 10.3605C73.494 10.5374 73.659 10.7567 73.755 11.0183Z" fill="#222223"/>
  <path fill-rule="evenodd" clip-rule="evenodd" d="M81.785 10.4701C81.8216 10.4701 81.8584 10.4701 81.895 10.4701C81.7757 10.6989 81.5924 10.8451 81.345 10.9086C81.455 10.7259 81.6016 10.5797 81.785 10.4701Z" fill="#89898A"/>
  <path fill-rule="evenodd" clip-rule="evenodd" d="M72.985 10.6894C72.662 11.1942 72.2588 11.6328 71.775 12.005C71.775 11.9685 71.775 11.9319 71.775 11.8953C72.1416 11.4568 72.545 11.0548 72.985 10.6894Z" fill="#131314"/>
  <path fill-rule="evenodd" clip-rule="evenodd" d="M35.475 10.9086C35.8416 11.201 36.1716 11.5299 36.465 11.8953C36.465 11.9319 36.465 11.9685 36.465 12.005C36.0543 11.7056 35.7243 11.3402 35.475 10.9086Z" fill="#111112"/>
  <path opacity="0.938" fill-rule="evenodd" clip-rule="evenodd" d="M26.565 10.5797C24.219 8.33293 21.9274 6.03061 19.69 3.67276C19.4097 5.6723 19.5381 7.64572 20.075 9.59303C20.0161 9.76858 19.9061 9.8234 19.745 9.75748C18.9566 9.11795 18.1684 8.4784 17.38 7.83887C17.2569 9.53651 17.4953 11.181 18.095 12.7724C18.04 12.8821 17.985 12.9917 17.93 13.1013C17.422 12.7779 16.9453 12.4124 16.5 12.005C16.4277 13.4584 16.5927 14.8837 16.995 16.2807C16.7306 15.6124 16.4739 14.9364 16.225 14.2525C16.2163 13.3364 16.2347 12.4045 16.28 11.4568C16.6913 11.872 17.1497 12.1826 17.655 12.3887C17.483 11.9471 17.3547 11.4903 17.27 11.0183C17.1966 9.88539 17.1966 8.75249 17.27 7.6196C18.0423 8.17099 18.8123 8.71916 19.58 9.26412C19.4957 7.43703 19.404 5.59151 19.305 3.72758C19.389 3.50071 19.444 3.26317 19.47 3.01495C20.3134 4.14784 21.3034 5.13455 22.44 5.97509C23.6753 7.53572 25.0319 8.99752 26.51 10.3605C26.561 10.4256 26.5794 10.4987 26.565 10.5797Z" fill="#141415"/>
  <path opacity="0.937" fill-rule="evenodd" clip-rule="evenodd" d="M91.245 16.2807C91.6473 14.8837 91.8123 13.4584 91.74 12.005C91.3598 12.367 90.9382 12.6594 90.475 12.8821C90.8786 12.3224 91.3736 11.8473 91.96 11.4568C92.0334 12.2974 92.0334 13.1378 91.96 13.9784C91.7971 14.7751 91.5587 15.5426 91.245 16.2807Z" fill="#141415"/>
  <path fill-rule="evenodd" clip-rule="evenodd" d="M90.255 12.8821C90.3284 12.8821 90.4016 12.8821 90.475 12.8821C90.3597 13.1488 90.2865 13.1488 90.255 12.8821Z" fill="#0D0D0E"/>
  <path fill-rule="evenodd" clip-rule="evenodd" d="M26.785 10.799C28.3308 12.23 29.7975 13.7282 31.185 15.294C29.6392 13.8631 28.1725 12.3648 26.785 10.799Z" fill="#19191A"/>
  <path fill-rule="evenodd" clip-rule="evenodd" d="M81.345 10.9086C79.9942 12.4378 78.5642 13.8997 77.055 15.294C78.4058 13.7648 79.8358 12.303 81.345 10.9086Z" fill="#1A1A1A"/>
  <path opacity="0.954" fill-rule="evenodd" clip-rule="evenodd" d="M15.675 16.0615C15.5081 16.0603 15.3798 15.9872 15.29 15.8422C15.2716 16.025 15.2534 16.2076 15.235 16.3904C15.3339 17.4058 15.5539 18.3925 15.895 19.3505C15.3856 18.2041 15.0556 16.9981 14.905 15.7326C14.9547 15.2248 15.1565 15.1883 15.51 15.6229C15.597 15.7594 15.652 15.9056 15.675 16.0615Z" fill="#151516"/>
  <path fill-rule="evenodd" clip-rule="evenodd" d="M92.565 16.0615C92.4098 16.3261 92.1898 16.5089 91.905 16.6096C92.0602 16.345 92.2802 16.1622 92.565 16.0615Z" fill="#171717"/>
  <path fill-rule="evenodd" clip-rule="evenodd" d="M92.345 19.3505C92.6861 18.3925 92.9061 17.4058 93.005 16.3904C92.9866 16.2076 92.9684 16.025 92.95 15.8422C92.8602 15.9872 92.7319 16.0603 92.565 16.0615C92.7485 15.8597 92.9135 15.6405 93.06 15.4037C93.2226 16.8036 92.9842 18.1192 92.345 19.3505Z" fill="#1A1A1B"/>
  <path fill-rule="evenodd" clip-rule="evenodd" d="M15.675 16.0615C15.9598 16.1622 16.1798 16.345 16.335 16.6096C16.0502 16.5089 15.8302 16.3261 15.675 16.0615Z" fill="#181718"/>
  <path fill-rule="evenodd" clip-rule="evenodd" d="M91.905 16.6096C91.7137 16.9104 91.457 17.1296 91.135 17.2674C91.3263 16.9667 91.583 16.7474 91.905 16.6096Z" fill="#222222"/>
  <path fill-rule="evenodd" clip-rule="evenodd" d="M16.995 16.2807C17.1975 16.5383 17.3441 16.8305 17.435 17.1578C17.174 16.9299 17.0273 16.6375 16.995 16.2807Z" fill="#100F10"/>
  <path fill-rule="evenodd" clip-rule="evenodd" d="M91.245 16.2807C91.2127 16.6375 91.066 16.9299 90.805 17.1578C90.8959 16.8305 91.0425 16.5383 91.245 16.2807Z" fill="#100F10"/>
  <path fill-rule="evenodd" clip-rule="evenodd" d="M16.335 16.6096C16.6198 16.7104 16.8398 16.8931 16.995 17.1578C16.7102 17.0571 16.4902 16.8743 16.335 16.6096Z" fill="#181718"/>
  <path fill-rule="evenodd" clip-rule="evenodd" d="M90.805 17.1578C90.805 17.2309 90.805 17.3039 90.805 17.3771C90.7316 17.3771 90.695 17.4136 90.695 17.4867C90.6584 17.4867 90.6216 17.4867 90.585 17.4867C90.577 17.3193 90.6503 17.2097 90.805 17.1578Z" fill="#151515"/>
  <path fill-rule="evenodd" clip-rule="evenodd" d="M76.725 15.6229C76.0713 16.4574 75.338 17.2248 74.525 17.9253C74.4884 17.9253 74.4516 17.9253 74.415 17.9253C75.1484 17.1213 75.9184 16.3539 76.725 15.6229Z" fill="#363637"/>
  <path fill-rule="evenodd" clip-rule="evenodd" d="M91.135 17.2674C91.0087 17.5511 90.8253 17.6607 90.585 17.5963C90.6584 17.5963 90.695 17.5598 90.695 17.4867C90.7684 17.4867 90.805 17.4502 90.805 17.3771C90.903 17.3102 91.013 17.2737 91.135 17.2674Z" fill="#181819"/>
  <path fill-rule="evenodd" clip-rule="evenodd" d="M16.995 17.1578C17.1619 17.159 17.2902 17.232 17.38 17.3771C17.431 17.312 17.4494 17.2388 17.435 17.1578C17.5821 17.2472 17.6921 17.3751 17.765 17.5415C17.7072 17.6174 17.6339 17.6722 17.545 17.706C17.3227 17.5574 17.1393 17.3748 16.995 17.1578Z" fill="#151515"/>
  <path fill-rule="evenodd" clip-rule="evenodd" d="M31.625 15.7326C32.4316 16.4635 33.2016 17.2309 33.935 18.0349C33.1382 17.4058 32.3865 16.7114 31.68 15.9518C31.629 15.8867 31.6106 15.8136 31.625 15.7326Z" fill="#2E2E2F"/>
  <path fill-rule="evenodd" clip-rule="evenodd" d="M74.415 17.9252C74.4516 17.9252 74.4884 17.9252 74.525 17.9252C74.3698 18.1899 74.1498 18.3727 73.865 18.4734C74.0116 18.2542 74.195 18.0714 74.415 17.9252Z" fill="#7B7B7B"/>
  <path fill-rule="evenodd" clip-rule="evenodd" d="M34.375 18.4734C34.6684 18.5465 34.8516 18.7292 34.925 19.0216C34.705 18.8754 34.5216 18.6927 34.375 18.4734Z" fill="#0D0D0E"/>
  <path fill-rule="evenodd" clip-rule="evenodd" d="M73.865 18.4734C73.7184 18.6927 73.535 18.8754 73.315 19.0216C73.3884 18.7292 73.5716 18.5465 73.865 18.4734Z" fill="#0D0D0E"/>
  <path fill-rule="evenodd" clip-rule="evenodd" d="M14.465 19.4601C14.2952 19.4379 14.1484 19.3648 14.025 19.2409C13.9884 19.2957 13.9516 19.3505 13.915 19.4053C14.0238 19.7832 14.0972 20.1669 14.135 20.5565C13.9025 20.0013 13.7741 19.4165 13.75 18.8023C14.0069 19.0106 14.2452 19.2299 14.465 19.4601Z" fill="#181819"/>
  <path fill-rule="evenodd" clip-rule="evenodd" d="M94.105 20.5565C94.1428 20.1669 94.2162 19.7832 94.325 19.4053C94.2884 19.3505 94.2516 19.2957 94.215 19.2409C94.0916 19.3648 93.9448 19.4379 93.775 19.4601C93.9767 19.1598 94.2335 19.0136 94.545 19.0216C94.4385 19.5575 94.2918 20.0692 94.105 20.5565Z" fill="#19191A"/>
  <path fill-rule="evenodd" clip-rule="evenodd" d="M15.895 19.3505C16.0922 19.5617 16.2022 19.8174 16.225 20.1179C16.0278 19.9068 15.9178 19.651 15.895 19.3505Z" fill="#191919"/>
  <path fill-rule="evenodd" clip-rule="evenodd" d="M92.345 19.3505C92.3222 19.651 92.2122 19.9068 92.015 20.1179C92.0378 19.8174 92.1478 19.5617 92.345 19.3505Z" fill="#191919"/>
  <path fill-rule="evenodd" clip-rule="evenodd" d="M14.465 19.4601C14.7807 19.5624 15.0374 19.7452 15.235 20.0083C14.9193 19.906 14.6626 19.7233 14.465 19.4601Z" fill="#171717"/>
  <path fill-rule="evenodd" clip-rule="evenodd" d="M93.775 19.4601C93.5774 19.7233 93.3207 19.906 93.005 20.0083C93.2026 19.7452 93.4593 19.5624 93.775 19.4601Z" fill="#1A1A1B"/>
  <path fill-rule="evenodd" clip-rule="evenodd" d="M35.145 19.2409C35.5193 19.504 35.8127 19.8329 36.025 20.2276C35.6507 19.9645 35.3573 19.6355 35.145 19.2409Z" fill="#262626"/>
  <path fill-rule="evenodd" clip-rule="evenodd" d="M73.205 19.1312C72.9557 19.5628 72.6257 19.9282 72.215 20.2276C72.4643 19.7961 72.7943 19.4306 73.205 19.1312Z" fill="#292829"/>
  <path fill-rule="evenodd" clip-rule="evenodd" d="M15.235 20.0083C15.403 20.0003 15.513 20.0734 15.565 20.2276C15.397 20.2356 15.287 20.1625 15.235 20.0083Z" fill="#111112"/>
  <path fill-rule="evenodd" clip-rule="evenodd" d="M93.005 20.0083C92.953 20.1625 92.843 20.2356 92.675 20.2276C92.727 20.0734 92.837 20.0003 93.005 20.0083Z" fill="#151516"/>
  <path fill-rule="evenodd" clip-rule="evenodd" d="M15.565 20.2276C15.7744 20.2537 15.9212 20.3633 16.005 20.5565C15.7956 20.5304 15.6488 20.4208 15.565 20.2276Z" fill="#121213"/>
  <path fill-rule="evenodd" clip-rule="evenodd" d="M92.675 20.2276C92.5912 20.4208 92.4444 20.5304 92.235 20.5565C92.3188 20.3633 92.4655 20.2537 92.675 20.2276Z" fill="#161617"/>
  <path fill-rule="evenodd" clip-rule="evenodd" d="M36.025 20.2276C36.2546 20.3465 36.4012 20.5292 36.465 20.7757C36.2354 20.6568 36.0888 20.4741 36.025 20.2276Z" fill="#19191A"/>
  <path fill-rule="evenodd" clip-rule="evenodd" d="M72.215 20.2276C72.1512 20.4741 72.0046 20.6568 71.775 20.7757C71.8388 20.5292 71.9854 20.3465 72.215 20.2276Z" fill="#232324"/>
  <path fill-rule="evenodd" clip-rule="evenodd" d="M16.005 20.5565C16.173 20.5485 16.283 20.6216 16.335 20.7757C16.167 20.7837 16.057 20.7106 16.005 20.5565Z" fill="#111112"/>
  <path fill-rule="evenodd" clip-rule="evenodd" d="M16.445 20.5565C16.5107 20.5822 16.5473 20.6371 16.555 20.7209C16.4966 20.9093 16.4232 20.9276 16.335 20.7757C16.4272 20.7383 16.4639 20.6652 16.445 20.5565Z" fill="#0D0E0E"/>
  <path fill-rule="evenodd" clip-rule="evenodd" d="M91.795 20.5565C91.7761 20.6652 91.8128 20.7383 91.905 20.7757C91.8984 20.8353 91.8618 20.8718 91.795 20.8854C91.6546 20.7633 91.6546 20.6536 91.795 20.5565Z" fill="#0D0E0E"/>
  <path fill-rule="evenodd" clip-rule="evenodd" d="M92.235 20.5565C92.183 20.7106 92.073 20.7837 91.905 20.7757C91.957 20.6216 92.067 20.5485 92.235 20.5565Z" fill="#151516"/>
  <path fill-rule="evenodd" clip-rule="evenodd" d="M14.135 20.5565C14.3445 20.9639 14.4913 21.4024 14.575 21.8721C14.3213 21.4791 14.1747 21.0405 14.135 20.5565Z" fill="#181819"/>
  <path fill-rule="evenodd" clip-rule="evenodd" d="M36.465 20.7757C36.7918 20.9888 37.0118 21.2811 37.125 21.6528C36.8518 21.4007 36.6318 21.1083 36.465 20.7757Z" fill="#181818"/>
  <path fill-rule="evenodd" clip-rule="evenodd" d="M71.775 20.7757C71.7488 20.9845 71.6388 21.1307 71.445 21.2143C71.4712 21.0055 71.5812 20.8593 71.775 20.7757Z" fill="#212122"/>
  <path fill-rule="evenodd" clip-rule="evenodd" d="M94.105 20.5565C94.0653 21.0405 93.9187 21.4791 93.665 21.8721C93.7487 21.4024 93.8955 20.9639 94.105 20.5565Z" fill="#181819"/>
  <path fill-rule="evenodd" clip-rule="evenodd" d="M71.445 21.2143C71.4188 21.423 71.3088 21.5693 71.115 21.6528C71.1412 21.4441 71.2512 21.2978 71.445 21.2143Z" fill="#1A1A1B"/>
  <path fill-rule="evenodd" clip-rule="evenodd" d="M37.125 21.6528C37.2797 21.7047 37.353 21.8143 37.345 21.9817C37.1903 21.9299 37.117 21.8202 37.125 21.6528Z" fill="#121212"/>
  <path fill-rule="evenodd" clip-rule="evenodd" d="M71.115 21.6528C71.123 21.8202 71.0497 21.9299 70.895 21.9817C70.887 21.8143 70.9603 21.7047 71.115 21.6528Z" fill="#151516"/>
  <path fill-rule="evenodd" clip-rule="evenodd" d="M37.345 21.9817C37.6752 22.2735 37.8952 22.639 38.005 23.0781C37.73 22.7498 37.51 22.3844 37.345 21.9817Z" fill="#151516"/>
  <path fill-rule="evenodd" clip-rule="evenodd" d="M70.895 21.9817C70.73 22.3844 70.51 22.7498 70.235 23.0781C70.3448 22.639 70.5648 22.2735 70.895 21.9817Z" fill="#151516"/>
  <path fill-rule="evenodd" clip-rule="evenodd" d="M14.575 21.8721C14.9248 22.5137 15.2914 23.1532 15.675 23.7907C15.4964 24.0121 15.3497 23.9937 15.235 23.7359C15.3163 23.7502 15.3897 23.7319 15.455 23.6811C15.0576 23.1264 14.7643 22.5234 14.575 21.8721Z" fill="#212122"/>
  <path fill-rule="evenodd" clip-rule="evenodd" d="M93.665 21.8721C93.4757 22.5234 93.1824 23.1264 92.785 23.6811C92.8503 23.7319 92.9237 23.7502 93.005 23.7359C92.8903 23.9937 92.7436 24.0121 92.565 23.7907C92.9486 23.1532 93.3152 22.5137 93.665 21.8721Z" fill="#202021"/>
  <path fill-rule="evenodd" clip-rule="evenodd" d="M38.005 23.0781C38.266 23.306 38.4127 23.5984 38.445 23.9551C38.2425 23.6976 38.0959 23.4053 38.005 23.0781Z" fill="#0D0D0E"/>
  <path fill-rule="evenodd" clip-rule="evenodd" d="M14.025 23.0781C14.482 23.2142 14.8854 23.4335 15.235 23.7359C14.7779 23.5997 14.3746 23.3804 14.025 23.0781Z" fill="#121213"/>
  <path fill-rule="evenodd" clip-rule="evenodd" d="M94.215 23.0781C93.9391 23.3438 93.6091 23.5265 93.225 23.6262C93.5009 23.3605 93.8309 23.1778 94.215 23.0781Z" fill="#131313"/>
  <path fill-rule="evenodd" clip-rule="evenodd" d="M38.885 23.7359C38.9287 23.6235 39.0019 23.6052 39.105 23.6811C39.0397 23.7319 38.9663 23.7502 38.885 23.7359Z" fill="#030706"/>
  <path fill-rule="evenodd" clip-rule="evenodd" d="M13.805 22.9684C13.6859 22.9642 13.5759 22.9275 13.475 22.8588C13.4384 22.9684 13.4016 23.0781 13.365 23.1877C13.5047 23.8608 13.6881 24.5186 13.915 25.1611C13.4377 24.3553 13.1994 23.4782 13.2 22.5299C13.4384 22.6382 13.64 22.7844 13.805 22.9684Z" fill="#19191A"/>
  <path fill-rule="evenodd" clip-rule="evenodd" d="M94.325 25.1611C94.5519 24.5186 94.7353 23.8608 94.875 23.1877C94.8384 23.0781 94.8016 22.9684 94.765 22.8588C94.6641 22.9275 94.5541 22.9642 94.435 22.9684C94.6 22.7844 94.8016 22.6382 95.04 22.5299C95.0406 23.4782 94.8023 24.3553 94.325 25.1611Z" fill="#19191A"/>
  <path fill-rule="evenodd" clip-rule="evenodd" d="M38.445 23.9551C38.6422 24.1663 38.7522 24.4221 38.775 24.7226C38.5778 24.5114 38.4678 24.2557 38.445 23.9551Z" fill="#171718"/>
  <path fill-rule="evenodd" clip-rule="evenodd" d="M69.795 23.9551C69.7722 24.2557 69.6622 24.5114 69.465 24.7226C69.4878 24.4221 69.5978 24.1663 69.795 23.9551Z" fill="#171718"/>
  <path fill-rule="evenodd" clip-rule="evenodd" d="M8.965 24.5033C9.11166 24.5764 9.11166 24.5764 8.965 24.5033V24.5033Z" fill="#7E1817"/>
  <path fill-rule="evenodd" clip-rule="evenodd" d="M13.915 25.1611C14.0441 25.2723 14.1174 25.4184 14.135 25.5997C13.9586 25.5134 13.8852 25.3672 13.915 25.1611Z" fill="#0D0D0E"/>
  <path fill-rule="evenodd" clip-rule="evenodd" d="M94.325 25.1611C94.3548 25.3672 94.2815 25.5134 94.105 25.5997C94.1226 25.4184 94.1959 25.2723 94.325 25.1611Z" fill="#0D0D0E"/>
  <path fill-rule="evenodd" clip-rule="evenodd" d="M14.245 25.8189C14.5465 26.0903 14.7665 26.4192 14.905 26.8057C14.5995 26.5369 14.3795 26.208 14.245 25.8189Z" fill="#171718"/>
  <path fill-rule="evenodd" clip-rule="evenodd" d="M93.995 25.8189C93.8605 26.208 93.6405 26.5369 93.335 26.8057C93.4735 26.4192 93.6935 26.0903 93.995 25.8189Z" fill="#171718"/>
  <path fill-rule="evenodd" clip-rule="evenodd" d="M38.775 24.7226C39.1128 25.4078 39.3511 26.1387 39.49 26.9153C39.6231 28.556 39.6964 30.2005 39.71 31.8488C39.8408 32.6622 40.0058 33.4662 40.205 34.2608C39.779 33.1241 39.5223 31.9364 39.435 30.6977C39.552 29.7314 39.5704 28.763 39.49 27.7924C39.3204 26.7509 39.0821 25.7277 38.775 24.7226Z" fill="#151516"/>
  <path fill-rule="evenodd" clip-rule="evenodd" d="M14.905 26.8056C15.0988 26.8892 15.2088 27.0354 15.235 27.2442C15.1984 27.2442 15.1616 27.2442 15.125 27.2442C15.004 27.123 14.9306 26.9769 14.905 26.8056Z" fill="#191919"/>
  <path fill-rule="evenodd" clip-rule="evenodd" d="M93.335 26.8056C93.3094 26.9769 93.236 27.123 93.115 27.2442C93.0784 27.2442 93.0416 27.2442 93.005 27.2442C93.0312 27.0354 93.1412 26.8892 93.335 26.8056Z" fill="#191919"/>
  <path fill-rule="evenodd" clip-rule="evenodd" d="M69.465 24.7226C69.1579 25.7277 68.9196 26.7509 68.75 27.7924C68.6696 28.763 68.688 29.7314 68.805 30.6977C68.7619 31.1386 68.6886 31.5589 68.585 31.9585C68.5666 30.5328 68.585 29.1075 68.64 27.6827C68.7636 26.6401 69.0386 25.6534 69.465 24.7226Z" fill="#141415"/>
  <path fill-rule="evenodd" clip-rule="evenodd" d="M15.125 27.2442C15.1616 27.3903 15.1984 27.3903 15.235 27.2442C15.6232 27.3316 15.6415 27.4412 15.29 27.5731C14.502 27.2382 13.6953 26.9458 12.87 26.696C12.7567 26.7329 12.7017 26.806 12.705 26.9153C12.6226 26.8023 12.5494 26.6743 12.485 26.5316C12.54 26.5133 12.595 26.4951 12.65 26.4767C13.467 26.7665 14.292 27.0223 15.125 27.2442Z" fill="#121213"/>
  <path fill-rule="evenodd" clip-rule="evenodd" d="M95.535 26.9153C95.5383 26.806 95.4833 26.7329 95.37 26.696C94.5447 26.9458 93.738 27.2382 92.95 27.5731C92.5986 27.4412 92.6168 27.3316 93.005 27.2442C93.0416 27.3903 93.0784 27.3903 93.115 27.2442C93.948 27.0223 94.773 26.7665 95.59 26.4767C95.645 26.4951 95.7 26.5133 95.755 26.5316C95.6907 26.6743 95.6174 26.8023 95.535 26.9153Z" fill="#121213"/>
  <path fill-rule="evenodd" clip-rule="evenodd" d="M12.705 26.9153C12.8929 27.2935 13.0395 27.6956 13.145 28.1213C12.87 27.7748 12.7234 27.3728 12.705 26.9153Z" fill="#171717"/>
  <path fill-rule="evenodd" clip-rule="evenodd" d="M95.535 26.9153C95.5166 27.3728 95.37 27.7748 95.095 28.1213C95.2005 27.6956 95.3471 27.2935 95.535 26.9153Z" fill="#171717"/>
  <path fill-rule="evenodd" clip-rule="evenodd" d="M13.145 28.1213C13.3109 28.3056 13.4209 28.5248 13.475 28.7791C13.2507 28.6244 13.1407 28.4051 13.145 28.1213Z" fill="#0D0D0E"/>
  <path fill-rule="evenodd" clip-rule="evenodd" d="M95.095 28.1213C95.0993 28.4051 94.9893 28.6244 94.765 28.7791C94.8191 28.5248 94.9291 28.3056 95.095 28.1213Z" fill="#0D0D0E"/>
  <path fill-rule="evenodd" clip-rule="evenodd" d="M13.475 28.7791C13.6675 28.9061 13.7775 29.0889 13.805 29.3272C13.6125 29.2002 13.5025 29.0174 13.475 28.7791Z" fill="#171718"/>
  <path fill-rule="evenodd" clip-rule="evenodd" d="M94.765 28.7791C94.7375 29.0174 94.6275 29.2002 94.435 29.3272C94.4625 29.0889 94.5725 28.9061 94.765 28.7791Z" fill="#171718"/>
  <path fill-rule="evenodd" clip-rule="evenodd" d="M13.805 29.3272C13.9597 29.3791 14.033 29.4887 14.025 29.6561C13.8703 29.6043 13.797 29.4947 13.805 29.3272Z" fill="#151515"/>
  <path fill-rule="evenodd" clip-rule="evenodd" d="M94.435 29.3272C94.443 29.4947 94.3697 29.6043 94.215 29.6561C94.207 29.4887 94.2804 29.3791 94.435 29.3272Z" fill="#151515"/>
  <path fill-rule="evenodd" clip-rule="evenodd" d="M14.025 29.6561C14.2982 29.9083 14.5182 30.2007 14.685 30.5332C14.3582 30.3202 14.1382 30.0279 14.025 29.6561Z" fill="#171718"/>
  <path fill-rule="evenodd" clip-rule="evenodd" d="M94.215 29.6561C94.1018 30.0279 93.8818 30.3202 93.555 30.5332C93.7218 30.2007 93.9418 29.9083 94.215 29.6561Z" fill="#181818"/>
  <path fill-rule="evenodd" clip-rule="evenodd" d="M14.905 30.9718C14.905 31.0083 14.905 31.0449 14.905 31.0814C14.2393 30.9904 13.5609 30.8076 12.87 30.5332C12.8721 30.7094 12.8904 30.8922 12.925 31.0814C12.735 30.8604 12.6433 30.6046 12.65 30.314C13.3845 30.5884 14.1361 30.8076 14.905 30.9718Z" fill="#181818"/>
  <path fill-rule="evenodd" clip-rule="evenodd" d="M14.685 30.5332C14.8788 30.6168 14.9888 30.763 15.015 30.9718C14.9784 30.9718 14.9416 30.9718 14.905 30.9718C14.784 30.8506 14.7106 30.7045 14.685 30.5332Z" fill="#0D0D0E"/>
  <path fill-rule="evenodd" clip-rule="evenodd" d="M93.555 30.5332C93.5294 30.7045 93.456 30.8506 93.335 30.9718C93.2984 30.9718 93.2616 30.9718 93.225 30.9718C93.2512 30.763 93.3612 30.6168 93.555 30.5332Z" fill="#0D0D0E"/>
  <path fill-rule="evenodd" clip-rule="evenodd" d="M95.315 31.0814C95.3496 30.8922 95.3679 30.7094 95.37 30.5332C94.6791 30.8076 94.0007 30.9904 93.335 31.0814C93.335 31.0449 93.335 31.0083 93.335 30.9718C94.1039 30.8076 94.8555 30.5884 95.59 30.314C95.5967 30.6046 95.505 30.8604 95.315 31.0814Z" fill="#181818"/>
  <path fill-rule="evenodd" clip-rule="evenodd" d="M12.925 31.0814C13.1275 31.3389 13.2741 31.6312 13.365 31.9585C13.104 31.7305 12.9573 31.4381 12.925 31.0814Z" fill="#121213"/>
  <path fill-rule="evenodd" clip-rule="evenodd" d="M95.315 31.0814C95.2827 31.4381 95.136 31.7305 94.875 31.9585C94.9659 31.6312 95.1125 31.3389 95.315 31.0814Z" fill="#121213"/>
  <path fill-rule="evenodd" clip-rule="evenodd" d="M13.365 31.9585C13.5659 32.139 13.7126 32.3583 13.805 32.6163C13.5496 32.4735 13.403 32.2543 13.365 31.9585Z" fill="#161616"/>
  <path fill-rule="evenodd" clip-rule="evenodd" d="M94.875 31.9585C94.837 32.2543 94.6904 32.4735 94.435 32.6163C94.5274 32.3583 94.6741 32.139 94.875 31.9585Z" fill="#161616"/>
  <path fill-rule="evenodd" clip-rule="evenodd" d="M13.805 32.6163C14.0346 32.7352 14.1812 32.9179 14.245 33.1645C14.0154 33.0455 13.8688 32.8628 13.805 32.6163Z" fill="#181819"/>
  <path fill-rule="evenodd" clip-rule="evenodd" d="M94.435 32.6163C94.3712 32.8628 94.2246 33.0455 93.995 33.1645C94.0588 32.9179 94.2054 32.7352 94.435 32.6163Z" fill="#151516"/>
  <path fill-rule="evenodd" clip-rule="evenodd" d="M14.465 33.3837C14.7216 33.5665 14.9416 33.7858 15.125 34.0415C14.795 33.9319 14.575 33.7126 14.465 33.3837Z" fill="#0D0D0E"/>
  <path fill-rule="evenodd" clip-rule="evenodd" d="M93.775 33.3837C93.665 33.7126 93.445 33.9319 93.115 34.0415C93.2984 33.7858 93.5184 33.5665 93.775 33.3837Z" fill="#0D0D0E"/>
  <path fill-rule="evenodd" clip-rule="evenodd" d="M68.585 31.9585C68.5538 32.774 68.3704 33.5415 68.035 34.2608C68.2041 33.4778 68.3873 32.7103 68.585 31.9585Z" fill="#151516"/>
  <path fill-rule="evenodd" clip-rule="evenodd" d="M15.125 34.0415C15.4268 34.1042 15.5185 34.2869 15.4 34.5897C14.5851 34.4414 13.7601 34.3865 12.925 34.4252C13.0171 34.5361 13.0537 34.664 13.035 34.809C12.9003 34.6514 12.7903 34.4687 12.705 34.2608C12.7966 34.2243 12.8884 34.1877 12.98 34.1512C13.7644 34.2897 14.5528 34.3446 15.345 34.3156C15.2481 34.238 15.1748 34.1466 15.125 34.0415Z" fill="#222222"/>
  <path fill-rule="evenodd" clip-rule="evenodd" d="M40.205 34.2608C40.3412 34.4487 40.4145 34.668 40.425 34.9186C40.2519 34.743 40.1785 34.5237 40.205 34.2608Z" fill="#1C1C1D"/>
  <path fill-rule="evenodd" clip-rule="evenodd" d="M68.035 34.2608C68.0615 34.5237 67.9881 34.743 67.815 34.9186C67.8255 34.668 67.8988 34.4487 68.035 34.2608Z" fill="#1C1C1D"/>
  <path fill-rule="evenodd" clip-rule="evenodd" d="M95.205 34.809C95.1863 34.664 95.2229 34.5361 95.315 34.4252C94.7096 34.3814 94.1046 34.3996 93.5 34.4801C93.2616 34.4436 93.0234 34.4069 92.785 34.3704C92.7986 34.3039 92.8353 34.2674 92.895 34.2608C93.6687 34.3474 94.4571 34.3108 95.26 34.1512C95.3516 34.1877 95.4434 34.2243 95.535 34.2608C95.4498 34.4687 95.3398 34.6514 95.205 34.809Z" fill="#1D1D1D"/>
  <path fill-rule="evenodd" clip-rule="evenodd" d="M56.045 36.1246C55.8826 35.8758 55.7176 35.62 55.55 35.3571C54.9036 34.5689 54.1153 34.3861 53.185 34.809C54.1036 34.218 54.9286 34.3643 55.66 35.2475C55.8792 35.5016 56.0075 35.7939 56.045 36.1246Z" fill="#151516"/>
  <path fill-rule="evenodd" clip-rule="evenodd" d="M53.185 34.809C52.9252 35.1041 52.6684 35.3965 52.415 35.686C52.5174 35.2553 52.774 34.963 53.185 34.809Z" fill="#121213"/>
  <path fill-rule="evenodd" clip-rule="evenodd" d="M13.145 35.0282C13.3375 35.1553 13.4475 35.3381 13.475 35.5764C13.2825 35.4493 13.1725 35.2666 13.145 35.0282Z" fill="#131314"/>
  <path fill-rule="evenodd" clip-rule="evenodd" d="M95.095 35.0282C95.0675 35.2666 94.9575 35.4493 94.765 35.5764C94.7925 35.3381 94.9025 35.1553 95.095 35.0282Z" fill="#131314"/>
  <path fill-rule="evenodd" clip-rule="evenodd" d="M40.425 34.9186C40.6343 35.2508 40.7811 35.6162 40.865 36.015C40.6127 35.7003 40.4659 35.3349 40.425 34.9186Z" fill="#161617"/>
  <path fill-rule="evenodd" clip-rule="evenodd" d="M67.815 34.9186C67.7741 35.3349 67.6273 35.7003 67.375 36.015C67.4589 35.6162 67.6057 35.2508 67.815 34.9186Z" fill="#161617"/>
  <path fill-rule="evenodd" clip-rule="evenodd" d="M13.475 35.5764C13.6688 35.66 13.7788 35.8062 13.805 36.015C13.6112 35.9314 13.5012 35.7852 13.475 35.5764Z" fill="#171718"/>
  <path fill-rule="evenodd" clip-rule="evenodd" d="M94.765 35.5764C94.7388 35.7852 94.6288 35.9314 94.435 36.015C94.4612 35.8062 94.5712 35.66 94.765 35.5764Z" fill="#171718"/>
  <path fill-rule="evenodd" clip-rule="evenodd" d="M13.805 36.0149C14.0346 36.1339 14.1812 36.3166 14.245 36.5631C14.0154 36.4442 13.8688 36.2615 13.805 36.0149Z" fill="#181819"/>
  <path fill-rule="evenodd" clip-rule="evenodd" d="M94.435 36.0149C94.3712 36.2615 94.2246 36.4442 93.995 36.5631C94.0588 36.3166 94.2054 36.1339 94.435 36.0149Z" fill="#151516"/>
  <path fill-rule="evenodd" clip-rule="evenodd" d="M52.415 35.686C52.3671 35.9773 52.2571 36.2332 52.085 36.4535C52.0907 36.1415 52.2007 35.8856 52.415 35.686Z" fill="#1B1B1B"/>
  <path fill-rule="evenodd" clip-rule="evenodd" d="M40.865 36.0149C41.2141 36.5649 41.5075 37.1496 41.745 37.7691C41.3372 37.2487 41.0439 36.6639 40.865 36.0149Z" fill="#151516"/>
  <path fill-rule="evenodd" clip-rule="evenodd" d="M67.375 36.0149C67.1961 36.6639 66.9028 37.2487 66.495 37.7691C66.7325 37.1496 67.0259 36.5649 67.375 36.0149Z" fill="#151516"/>
  <path fill-rule="evenodd" clip-rule="evenodd" d="M52.085 36.4535C51.8921 37.6057 51.9653 38.7386 52.305 39.8522C52.1628 39.705 52.0711 39.5223 52.03 39.304C51.9248 38.8127 51.8332 38.3194 51.755 37.8239C51.8074 37.3391 51.9174 36.8823 52.085 36.4535Z" fill="#131314"/>
  <path fill-rule="evenodd" clip-rule="evenodd" d="M56.155 36.4535C56.327 36.8995 56.437 37.3745 56.485 37.8787C56.4359 38.5873 56.2527 39.2451 55.935 39.8522C56.2747 38.7386 56.3479 37.6057 56.155 36.4535Z" fill="#161617"/>
  <path fill-rule="evenodd" clip-rule="evenodd" d="M14.355 36.6728C14.736 36.9975 15.1027 37.3447 15.455 37.7143C15.3527 37.8229 15.2244 37.8777 15.07 37.8787C14.5376 37.8016 14.0059 37.7284 13.475 37.6595C13.5116 37.8787 13.5484 38.098 13.585 38.3173C13.435 38.1287 13.325 37.9094 13.255 37.6595C13.3834 37.623 13.5116 37.5863 13.64 37.5498C14.1748 37.6371 14.7065 37.6919 15.235 37.7143C14.8745 37.411 14.5813 37.0638 14.355 36.6728Z" fill="#131313"/>
  <path fill-rule="evenodd" clip-rule="evenodd" d="M93.885 36.6728C93.6587 37.0638 93.3655 37.411 93.005 37.7143C93.5336 37.6919 94.0652 37.6371 94.6 37.5498C94.7284 37.5863 94.8566 37.623 94.985 37.6595C94.915 37.9094 94.805 38.1287 94.655 38.3173C94.6916 38.098 94.7284 37.8787 94.765 37.6595C94.2341 37.7284 93.7024 37.8016 93.17 37.8787C93.0156 37.8777 92.8873 37.8229 92.785 37.7143C93.1373 37.3447 93.504 36.9975 93.885 36.6728Z" fill="#131314"/>
  <path fill-rule="evenodd" clip-rule="evenodd" d="M41.745 37.7691C41.9375 37.8962 42.0475 38.0789 42.075 38.3173C41.8825 38.1902 41.7725 38.0074 41.745 37.7691Z" fill="#121212"/>
  <path fill-rule="evenodd" clip-rule="evenodd" d="M66.495 37.7691C66.4675 38.0074 66.3575 38.1902 66.165 38.3173C66.1925 38.0789 66.3025 37.8962 66.495 37.7691Z" fill="#121212"/>
  <path fill-rule="evenodd" clip-rule="evenodd" d="M42.075 38.3173C42.2297 38.3691 42.303 38.4788 42.295 38.6462C42.1403 38.5943 42.067 38.4847 42.075 38.3173Z" fill="#121212"/>
  <path fill-rule="evenodd" clip-rule="evenodd" d="M66.165 38.3173C66.173 38.4847 66.0997 38.5943 65.945 38.6462C65.937 38.4788 66.0103 38.3691 66.165 38.3173Z" fill="#151516"/>
  <path fill-rule="evenodd" clip-rule="evenodd" d="M42.295 38.6462C42.4497 38.698 42.523 38.8077 42.515 38.9751C42.3603 38.9232 42.287 38.8136 42.295 38.6462Z" fill="#121212"/>
  <path fill-rule="evenodd" clip-rule="evenodd" d="M65.945 38.6462C65.953 38.8136 65.8797 38.9232 65.725 38.9751C65.717 38.8077 65.7903 38.698 65.945 38.6462Z" fill="#151516"/>
  <path fill-rule="evenodd" clip-rule="evenodd" d="M13.805 38.7558C14.0059 38.9364 14.1526 39.1557 14.245 39.4136C13.9896 39.2709 13.8429 39.0516 13.805 38.7558Z" fill="#171718"/>
  <path fill-rule="evenodd" clip-rule="evenodd" d="M94.435 38.7558C94.397 39.0516 94.2504 39.2709 93.995 39.4136C94.0874 39.1557 94.2341 38.9364 94.435 38.7558Z" fill="#171718"/>
  <path fill-rule="evenodd" clip-rule="evenodd" d="M42.515 38.9751C42.7088 39.0586 42.8188 39.2049 42.845 39.4136C42.6512 39.3301 42.5412 39.1838 42.515 38.9751Z" fill="#181819"/>
  <path fill-rule="evenodd" clip-rule="evenodd" d="M65.725 38.9751C65.6988 39.1838 65.5888 39.3301 65.395 39.4136C65.4212 39.2049 65.5312 39.0586 65.725 38.9751Z" fill="#181819"/>
  <path fill-rule="evenodd" clip-rule="evenodd" d="M14.245 39.4136C14.6484 39.7425 15.015 40.1079 15.345 40.51C14.8684 40.2542 14.5016 39.8887 14.245 39.4136Z" fill="#111112"/>
  <path fill-rule="evenodd" clip-rule="evenodd" d="M42.845 39.4136C43.1105 39.5683 43.2939 39.7876 43.395 40.0714C43.1295 39.9167 42.9461 39.6975 42.845 39.4136Z" fill="#161616"/>
  <path fill-rule="evenodd" clip-rule="evenodd" d="M65.395 39.4136C65.2939 39.6975 65.1105 39.9167 64.845 40.0714C64.9461 39.7876 65.1295 39.5683 65.395 39.4136Z" fill="#1E1E1F"/>
  <path fill-rule="evenodd" clip-rule="evenodd" d="M93.995 39.4136C93.7384 39.8887 93.3716 40.2542 92.895 40.51C93.225 40.1079 93.5916 39.7425 93.995 39.4136Z" fill="#111112"/>
  <path fill-rule="evenodd" clip-rule="evenodd" d="M43.395 40.0714C43.6884 40.2907 43.945 40.5465 44.165 40.8389C43.7984 40.6927 43.5416 40.4368 43.395 40.0714Z" fill="#545454"/>
  <path fill-rule="evenodd" clip-rule="evenodd" d="M64.845 40.0714C64.6984 40.4368 64.4416 40.6927 64.075 40.8389C64.295 40.5465 64.5516 40.2907 64.845 40.0714Z" fill="#6B6B6B"/>
  <path fill-rule="evenodd" clip-rule="evenodd" d="M52.415 40.0714C52.6045 40.2636 52.7695 40.4829 52.91 40.7292C52.9987 41.3414 52.9803 41.9444 52.855 42.5382C51.1738 43.1421 49.487 43.2334 47.795 42.8123C49.4752 43.0486 51.1252 42.9206 52.745 42.4286C52.8024 42.3671 52.839 42.2939 52.855 42.2093C52.7721 41.6836 52.7171 41.1537 52.69 40.6196C52.5391 40.465 52.4474 40.2823 52.415 40.0714Z" fill="#212121"/>
  <path fill-rule="evenodd" clip-rule="evenodd" d="M55.825 40.0714C55.7925 40.2823 55.7009 40.465 55.55 40.6196C55.4951 41.2398 55.4767 41.8611 55.495 42.4834C57.1209 42.9208 58.7709 43.0305 60.445 42.8123C58.7502 43.1633 57.0636 43.0719 55.385 42.5382C55.2597 41.9444 55.2413 41.3414 55.33 40.7292C55.4705 40.4829 55.6355 40.2636 55.825 40.0714Z" fill="#181819"/>
  <path fill-rule="evenodd" clip-rule="evenodd" d="M15.345 40.51C15.5924 40.5736 15.7757 40.7197 15.895 40.9485C15.6476 40.8849 15.4644 40.7388 15.345 40.51Z" fill="#171718"/>
  <path fill-rule="evenodd" clip-rule="evenodd" d="M92.895 40.51C92.7757 40.7388 92.5924 40.8849 92.345 40.9485C92.4644 40.7197 92.6476 40.5736 92.895 40.51Z" fill="#131313"/>
  <path fill-rule="evenodd" clip-rule="evenodd" d="M64.075 40.8389C63.9198 41.1035 63.6998 41.2863 63.415 41.387C63.5702 41.1224 63.7902 40.9396 64.075 40.8389Z" fill="#19191A"/>
  <path fill-rule="evenodd" clip-rule="evenodd" d="M44.165 40.8389C44.4498 40.9396 44.6698 41.1224 44.825 41.387C44.5402 41.2863 44.3202 41.1035 44.165 40.8389Z" fill="#1B1B1B"/>
  <path fill-rule="evenodd" clip-rule="evenodd" d="M15.895 40.9485C16.2068 41.0109 16.3901 41.1936 16.445 41.4967C15.7102 41.4844 14.9768 41.4478 14.245 41.387C14.245 41.4967 14.245 41.6063 14.245 41.7159C14.147 41.6325 14.0736 41.5229 14.025 41.387C14.7941 41.2957 15.5641 41.2774 16.335 41.3322C16.1344 41.2599 15.9877 41.1319 15.895 40.9485Z" fill="#191919"/>
  <path fill-rule="evenodd" clip-rule="evenodd" d="M92.345 40.9485C92.2523 41.1319 92.1056 41.2599 91.905 41.3322C92.6759 41.2774 93.4459 41.2957 94.215 41.387C94.1664 41.5229 94.093 41.6325 93.995 41.7159C93.995 41.6063 93.995 41.4967 93.995 41.387C93.2625 41.4368 92.5291 41.4733 91.795 41.4967C91.8499 41.1936 92.0331 41.0109 92.345 40.9485Z" fill="#161617"/>
  <path fill-rule="evenodd" clip-rule="evenodd" d="M44.825 41.387C45.0838 41.4791 45.3038 41.6254 45.485 41.8256C45.1882 41.7878 44.9682 41.6416 44.825 41.387Z" fill="#141415"/>
  <path fill-rule="evenodd" clip-rule="evenodd" d="M63.415 41.387C63.2718 41.6416 63.0518 41.7878 62.755 41.8256C62.9362 41.6254 63.1562 41.4791 63.415 41.387Z" fill="#141415"/>
  <path fill-rule="evenodd" clip-rule="evenodd" d="M45.485 41.8256C45.7241 41.853 45.9075 41.9626 46.035 42.1545C45.7959 42.1271 45.6125 42.0174 45.485 41.8256Z" fill="#101011"/>
  <path fill-rule="evenodd" clip-rule="evenodd" d="M62.755 41.8256C62.6275 42.0174 62.4441 42.1271 62.205 42.1545C62.3325 41.9626 62.5159 41.853 62.755 41.8256Z" fill="#0F0F10"/>
  <path fill-rule="evenodd" clip-rule="evenodd" d="M14.355 41.9352C14.5559 42.1158 14.7026 42.3351 14.795 42.593C14.5396 42.4503 14.3929 42.231 14.355 41.9352Z" fill="#141415"/>
  <path fill-rule="evenodd" clip-rule="evenodd" d="M93.885 41.9352C93.8471 42.231 93.7004 42.4503 93.445 42.593C93.5374 42.3351 93.6841 42.1158 93.885 41.9352Z" fill="#141415"/>
  <path fill-rule="evenodd" clip-rule="evenodd" d="M46.255 42.2641C46.792 42.4058 47.3053 42.5885 47.795 42.8123C47.2264 42.7576 46.713 42.5748 46.255 42.2641Z" fill="#131314"/>
  <path fill-rule="evenodd" clip-rule="evenodd" d="M61.985 42.2641C61.527 42.5748 61.0136 42.7576 60.445 42.8123C60.9347 42.5885 61.448 42.4058 61.985 42.2641Z" fill="#131213"/>
  <path fill-rule="evenodd" clip-rule="evenodd" d="M14.905 42.7027C15.125 42.8488 15.3084 43.0316 15.455 43.2508C15.1616 43.1777 14.9784 42.9951 14.905 42.7027Z" fill="#0D0D0E"/>
  <path fill-rule="evenodd" clip-rule="evenodd" d="M93.335 42.7027C93.2616 42.9951 93.0784 43.1777 92.785 43.2508C92.9316 43.0316 93.115 42.8488 93.335 42.7027Z" fill="#0D0D0E"/>
  <path fill-rule="evenodd" clip-rule="evenodd" d="M53.295 43.6894C54.3312 43.6723 55.3578 43.7636 56.375 43.9635C56.9917 44.2477 57.6149 44.5218 58.245 44.7857C58.4806 45.0678 58.7739 45.2688 59.125 45.3887C59.7336 45.9586 60.302 46.5616 60.83 47.1977C61.0943 47.7871 61.3693 48.3717 61.655 48.9518C61.7805 49.3087 61.8721 49.6742 61.93 50.0482C62.028 51.3692 61.9913 52.6848 61.82 53.995C60.9157 56.4498 59.7423 58.7522 58.3 60.902C57.2574 62.3426 56.1757 63.7495 55.055 65.1229C54.4386 65.3182 53.8152 65.3364 53.185 65.1777C53.0415 64.8337 52.8032 64.5779 52.47 64.4103C50.46 61.8898 48.7 59.1856 47.19 56.2973C46.9682 55.6687 46.73 55.0474 46.475 54.4336C45.5783 51.429 46.11 48.7247 48.07 46.3206C49.5062 44.8466 51.2478 43.9695 53.295 43.6894Z" fill="black"/>
  <path fill-rule="evenodd" clip-rule="evenodd" d="M56.155 44.2375C56.155 45.8821 56.155 47.5266 56.155 49.1711C55.0821 48.4744 53.9271 48.3281 52.69 48.7326C52.5059 48.8789 52.3225 49.0252 52.14 49.1711C52.085 47.4539 52.0666 45.7362 52.085 44.0183C53.3498 43.7351 54.6148 43.7351 55.88 44.0183C56.0314 44.0384 56.123 44.1116 56.155 44.2375Z" fill="#FEFFFE"/>
  <path fill-rule="evenodd" clip-rule="evenodd" d="M56.155 44.2375C56.5342 44.272 56.9008 44.3634 57.255 44.5116C61.0115 46.5233 62.4965 49.6479 61.71 53.8854C61.3864 54.6403 61.093 55.4078 60.83 56.1877C60.0322 57.5221 59.2622 58.8742 58.52 60.2442C58.0701 60.7395 57.7035 61.2877 57.42 61.8887C57.0107 62.3872 56.5891 62.8623 56.155 63.314C56.155 60.3903 56.155 57.4668 56.155 54.5432C57.9143 52.7492 57.9143 50.9586 56.155 49.1711C56.155 47.5266 56.155 45.8821 56.155 44.2375Z" fill="#DE2625"/>
  <path fill-rule="evenodd" clip-rule="evenodd" d="M15.455 43.2508C15.9254 43.5592 16.4021 43.8698 16.885 44.1827C16.9771 44.2936 17.0137 44.4215 16.995 44.5664C16.5133 44.5893 16.0366 44.5527 15.565 44.4568C15.4916 44.4933 15.4184 44.5299 15.345 44.5664C15.5701 45.0653 15.9001 45.4855 16.335 45.8272C17.0356 46.2491 17.7322 46.6693 18.425 47.088C17.732 47.0863 17.0354 47.1228 16.335 47.1977C16.4515 47.4207 16.5615 47.6399 16.665 47.8555C16.323 47.6123 16.158 47.2834 16.17 46.8688C16.7658 46.9936 17.3708 47.012 17.985 46.9236C16.6923 46.4821 15.7389 45.6598 15.125 44.4568C15.7109 44.3622 16.2975 44.344 16.885 44.402C16.3558 44.0747 15.8792 43.691 15.455 43.2508Z" fill="#161617"/>
  <path fill-rule="evenodd" clip-rule="evenodd" d="M92.675 43.3605C92.2873 43.7643 91.8473 44.1115 91.355 44.402C91.9425 44.344 92.5291 44.3622 93.115 44.4568C92.5011 45.6598 91.5477 46.4821 90.255 46.9236C90.8692 47.012 91.4742 46.9936 92.07 46.8688C92.082 47.2834 91.917 47.6123 91.575 47.8555C91.6785 47.6399 91.7885 47.4207 91.905 47.1977C91.2046 47.1228 90.508 47.0863 89.815 47.088C90.5078 46.6693 91.2044 46.2491 91.905 45.8272C92.3399 45.4855 92.6699 45.0653 92.895 44.5664C92.8216 44.5299 92.7484 44.4933 92.675 44.4568C92.2034 44.5527 91.7267 44.5892 91.245 44.5664C91.2263 44.4215 91.2629 44.2936 91.355 44.1827C91.7842 43.8811 92.2242 43.607 92.675 43.3605Z" fill="#161617"/>
  <path fill-rule="evenodd" clip-rule="evenodd" d="M91.575 47.8555C91.3858 48.2097 91.1292 48.5203 90.805 48.7874C90.2739 49.18 89.7239 49.5455 89.155 49.8837C89.6358 49.9026 90.1125 49.9574 90.585 50.0482C90.5262 50.2412 90.4162 50.3874 90.255 50.4867C90.2593 50.368 90.296 50.2583 90.365 50.1578C89.8516 50.0847 89.3384 50.0117 88.825 49.9385C89.8375 49.3678 90.7541 48.6734 91.575 47.8555Z" fill="#131313"/>
  <path fill-rule="evenodd" clip-rule="evenodd" d="M53.295 48.6229C55.8277 48.5385 57.1661 49.7445 57.31 52.2409C56.5875 54.7233 54.9925 55.5456 52.525 54.7076C50.6795 53.2342 50.4228 51.5166 51.755 49.5548C52.2591 49.213 52.7724 48.9024 53.295 48.6229Z" fill="#FEFFFE"/>
  <path fill-rule="evenodd" clip-rule="evenodd" d="M16.665 47.8555C17.4859 48.6734 18.4026 49.3678 19.415 49.9385C18.9016 50.0117 18.3884 50.0847 17.875 50.1578C17.944 50.2583 17.9807 50.368 17.985 50.4867C17.8239 50.3874 17.7139 50.2412 17.655 50.0482C18.1276 49.9574 18.6042 49.9026 19.085 49.8837C18.5161 49.5455 17.9661 49.18 17.435 48.7874C17.1108 48.5203 16.8542 48.2097 16.665 47.8555Z" fill="#111112"/>
  <path fill-rule="evenodd" clip-rule="evenodd" d="M17.985 50.4867C18.315 50.7425 18.6084 51.0349 18.865 51.3638C18.4616 51.181 18.1684 50.8887 17.985 50.4867Z" fill="#171718"/>
  <path fill-rule="evenodd" clip-rule="evenodd" d="M90.255 50.4867C90.0716 50.8887 89.7784 51.181 89.375 51.3638C89.6316 51.0349 89.925 50.7425 90.255 50.4867Z" fill="#161617"/>
  <path fill-rule="evenodd" clip-rule="evenodd" d="M18.865 51.3638C19.6165 51.7197 20.3865 52.0486 21.175 52.3505C21.3216 52.4601 21.3216 52.5698 21.175 52.6794C20.8195 52.7488 20.4895 52.8584 20.185 53.0083C20.0982 52.9773 20.0248 52.9225 19.965 52.8439C20.3731 52.7457 20.7765 52.6361 21.175 52.515C20.6162 52.3172 20.0662 52.0979 19.525 51.8571C19.2778 51.7171 19.0578 51.5527 18.865 51.3638Z" fill="#141415"/>
  <path fill-rule="evenodd" clip-rule="evenodd" d="M89.375 51.3638C89.2569 51.5156 89.1102 51.6435 88.935 51.7475C88.3242 52.0337 87.7009 52.2894 87.065 52.515C87.4635 52.6361 87.8669 52.7457 88.275 52.8439C88.2152 52.9225 88.1418 52.9773 88.055 53.0083C87.7577 52.8479 87.4277 52.7566 87.065 52.7342C86.9296 52.6045 86.9296 52.4767 87.065 52.3505C87.8535 52.0486 88.6235 51.7197 89.375 51.3638Z" fill="#151515"/>
  <path fill-rule="evenodd" clip-rule="evenodd" d="M20.185 53.0083C21.0562 53.8958 22.1196 54.4075 23.375 54.5432C22.374 54.5597 21.4574 54.2491 20.625 53.6113C20.409 53.4522 20.2623 53.2513 20.185 53.0083Z" fill="#161616"/>
  <path fill-rule="evenodd" clip-rule="evenodd" d="M88.055 53.0083C87.9777 53.2513 87.831 53.4522 87.615 53.6113C86.7826 54.2491 85.866 54.5597 84.865 54.5432C86.1204 54.4075 87.1838 53.8958 88.055 53.0083Z" fill="#171818"/>
  <path fill-rule="evenodd" clip-rule="evenodd" d="M56.155 54.5432C56.155 57.4668 56.155 60.3903 56.155 63.314C55.8569 63.9577 55.4535 64.5241 54.945 65.0133C54.4022 65.2076 53.8522 65.2258 53.295 65.0681C52.8683 64.6269 52.4833 64.1519 52.14 63.6429C52.0484 60.6456 52.0666 57.6488 52.195 54.6528C53.5376 55.4034 54.8576 55.3669 56.155 54.5432Z" fill="#FEFFFE"/>
  <path fill-rule="evenodd" clip-rule="evenodd" d="M23.485 54.5432C23.6613 54.5226 23.8081 54.5774 23.925 54.7076C23.2275 54.8722 22.5309 55.0367 21.835 55.201C21.9515 55.424 22.0615 55.6433 22.165 55.8588C21.9032 55.6684 21.7198 55.4126 21.615 55.0914C22.117 54.9348 22.6303 54.8252 23.155 54.7625C23.3233 54.7471 23.4333 54.674 23.485 54.5432Z" fill="#151516"/>
  <path fill-rule="evenodd" clip-rule="evenodd" d="M84.755 54.5432C84.8067 54.674 84.9167 54.7471 85.085 54.7625C85.6097 54.8252 86.123 54.9348 86.625 55.0914C86.5202 55.4126 86.3368 55.6684 86.075 55.8588C86.1785 55.6433 86.2885 55.424 86.405 55.201C85.7031 55.06 85.0065 54.8956 84.315 54.7076C84.4319 54.5774 84.5787 54.5226 84.755 54.5432Z" fill="#181919"/>
  <path fill-rule="evenodd" clip-rule="evenodd" d="M22.165 55.8588C22.275 55.8953 22.3484 55.9684 22.385 56.0781C22.2384 56.0781 22.165 56.0049 22.165 55.8588Z" fill="#0C0C0D"/>
  <path fill-rule="evenodd" clip-rule="evenodd" d="M86.075 55.8588C86.075 56.0049 86.0016 56.0781 85.855 56.0781C85.8916 55.9684 85.965 55.8953 86.075 55.8588Z" fill="#0C0C0D"/>
  <path fill-rule="evenodd" clip-rule="evenodd" d="M22.385 56.0781C22.8306 56.3363 23.3072 56.5372 23.815 56.6811C24.551 56.6996 25.2844 56.7544 26.015 56.8455C25.2864 57.2033 24.5531 57.5505 23.815 57.887C25.0451 58.4861 26.3285 58.7967 27.665 58.8189C27.0268 59.0426 26.3668 59.3167 25.685 59.6412C26.7595 60.1625 27.8961 60.3818 29.095 60.299C29.1316 60.3355 29.1684 60.3721 29.205 60.4086C28.6741 60.6549 28.1609 60.929 27.665 61.2309C27.8444 61.4279 28.0644 61.5559 28.325 61.6146C28.9872 61.6476 29.6472 61.7024 30.305 61.7791C30.5745 61.7505 30.8311 61.6773 31.075 61.5598C31.1639 61.5936 31.2372 61.6484 31.295 61.7243C30.8476 61.9152 30.4076 62.1162 29.975 62.3272C30.0677 62.1438 30.2144 62.0159 30.415 61.9435C29.6771 61.9118 28.9437 61.8388 28.215 61.7243C27.9544 61.6655 27.7344 61.5375 27.555 61.3405C27.4295 61.2391 27.4295 61.1477 27.555 61.0664C27.9216 60.8837 28.2884 60.701 28.655 60.5183C27.5147 60.481 26.4514 60.1886 25.465 59.6412C25.8743 59.3641 26.3143 59.1449 26.785 58.9834C25.6858 58.8131 24.6408 58.4659 23.65 57.9419C23.5743 57.8506 23.5927 57.7776 23.705 57.7226C24.255 57.485 24.805 57.2475 25.355 57.01C24.388 56.9896 23.4714 56.7703 22.605 56.3522C22.5081 56.2745 22.4348 56.1831 22.385 56.0781Z" fill="#151516"/>
  <path fill-rule="evenodd" clip-rule="evenodd" d="M85.855 56.0781C85.5029 56.4549 85.0629 56.6925 84.535 56.7907C83.9883 56.8878 83.4383 56.9608 82.885 57.01C83.435 57.2475 83.985 57.485 84.535 57.7226C84.6473 57.7776 84.6657 57.8506 84.59 57.9419C83.5992 58.4659 82.5542 58.8131 81.455 58.9834C81.9257 59.1449 82.3657 59.3641 82.775 59.6412C81.7886 60.1886 80.7253 60.481 79.585 60.5183C79.9516 60.701 80.3184 60.8837 80.685 61.0664C80.8105 61.1477 80.8105 61.2391 80.685 61.3405C80.5056 61.5375 80.2856 61.6655 80.025 61.7243C79.2963 61.8388 78.5629 61.9118 77.825 61.9435C78.0257 62.0159 78.1723 62.1438 78.265 62.3272C77.8902 62.1109 77.4869 61.9465 77.055 61.8339C76.9336 61.7099 76.9702 61.6185 77.165 61.5598C77.3625 61.6437 77.5641 61.7168 77.77 61.7791C78.4809 61.694 79.1959 61.6392 79.915 61.6146C80.1756 61.5559 80.3956 61.4279 80.575 61.2309C80.0791 60.929 79.5659 60.6549 79.035 60.4086C79.0716 60.3721 79.1084 60.3355 79.145 60.299C80.342 60.3733 81.4787 60.1541 82.555 59.6412C81.8732 59.3167 81.2132 59.0426 80.575 58.8189C81.9105 58.7909 83.1939 58.4802 84.425 57.887C83.6777 57.5485 82.9443 57.2014 82.225 56.8455C82.9188 56.7544 83.6155 56.6996 84.315 56.6811C84.8699 56.5685 85.3831 56.3674 85.855 56.0781Z" fill="#181818"/>
  <path fill-rule="evenodd" clip-rule="evenodd" d="M29.975 62.3272C29.8166 62.5342 29.6333 62.717 29.425 62.8754C30.3589 63.1496 31.2939 63.1496 32.23 62.8754C32.3125 62.944 32.4042 62.9989 32.505 63.0399C32.3314 63.1598 32.1481 63.2512 31.955 63.314C32.1035 63.1879 32.0852 63.1147 31.9 63.0947C31.0335 63.2531 30.1719 63.2348 29.315 63.0399C29.2261 63.0061 29.1528 62.9513 29.095 62.8754C29.3576 62.6354 29.6508 62.4527 29.975 62.3272Z" fill="#151515"/>
  <path fill-rule="evenodd" clip-rule="evenodd" d="M78.265 62.3272C78.5335 62.4431 78.7902 62.5893 79.035 62.7658C79.1816 62.8389 79.1816 62.9119 79.035 62.9851C78.1482 63.2306 77.2498 63.2671 76.34 63.0947C76.1547 63.1147 76.1365 63.1879 76.285 63.314C76.0919 63.2512 75.9086 63.1598 75.735 63.0399C75.8357 62.9989 75.9275 62.944 76.01 62.8754C76.9461 63.1496 77.8811 63.1496 78.815 62.8754C78.6066 62.717 78.4234 62.5342 78.265 62.3272Z" fill="#161617"/>
  <path fill-rule="evenodd" clip-rule="evenodd" d="M31.955 63.314C31.7371 63.5116 31.4987 63.6944 31.24 63.8621C31.175 63.9699 31.2117 64.043 31.35 64.0814C31.8869 64.2423 32.4369 64.3155 33 64.3007C33.6069 64.2553 34.2119 64.2371 34.815 64.2458C34.5465 64.4044 34.2531 64.4957 33.935 64.5199C33.2582 64.4292 32.5614 64.3743 31.845 64.3555C31.541 64.2972 31.2477 64.2057 30.965 64.0814C30.8184 64.0083 30.8184 63.9353 30.965 63.8621C31.2707 63.6293 31.6007 63.4465 31.955 63.314Z" fill="#121213"/>
  <path fill-rule="evenodd" clip-rule="evenodd" d="M76.285 63.314C76.6393 63.4465 76.9693 63.6293 77.275 63.8621C77.4216 63.9353 77.4216 64.0083 77.275 64.0814C76.9923 64.2057 76.699 64.2972 76.395 64.3555C75.6786 64.3743 74.9818 64.4292 74.305 64.5199C73.9869 64.4957 73.6935 64.4044 73.425 64.2458C74.0099 64.2355 74.5966 64.2539 75.185 64.3007C75.7649 64.3102 76.3333 64.2372 76.89 64.0814C77.0283 64.043 77.065 63.9699 77 63.8621C76.7413 63.6944 76.5029 63.5116 76.285 63.314Z" fill="#131314"/>
  <path fill-rule="evenodd" clip-rule="evenodd" d="M33.935 64.5199C33.6259 64.8089 33.2959 65.083 32.945 65.3422C33.0685 65.4567 33.2152 65.5297 33.385 65.5615C34.4985 65.6988 35.5802 65.5709 36.63 65.1777C36.7465 65.192 36.8381 65.2468 36.905 65.3422C36.2527 65.5529 35.7211 65.9366 35.31 66.4934C35.2625 66.614 35.3175 66.6871 35.475 66.7126C36.4264 66.8408 37.3614 66.7677 38.28 66.4934C38.335 66.5482 38.39 66.603 38.445 66.6578C38.115 66.9867 37.785 67.3156 37.455 67.6445C37.8929 67.7934 38.3512 67.8847 38.83 67.9186C39.5514 67.9215 40.2114 67.7387 40.81 67.3704C41.022 67.5088 41.0036 67.6184 40.755 67.6993C40.6816 67.6993 40.645 67.7358 40.645 67.809C40.4477 68.0608 40.2277 68.2983 39.985 68.5216C41.3934 68.7829 42.6768 68.4723 43.835 67.5897C43.9541 67.6845 43.9724 67.7942 43.89 67.9186C43.7009 68.2243 43.4627 68.48 43.175 68.686C43.3052 68.4708 43.3969 68.2516 43.45 68.0282C42.2649 68.7544 40.9999 68.9553 39.655 68.6312C39.9116 68.3755 40.1684 68.1196 40.425 67.8638C39.3231 68.1142 38.2231 68.0776 37.125 67.7542C37.455 67.4253 37.785 67.0963 38.115 66.7674C37.5388 66.836 36.9521 66.8908 36.355 66.9319C35.8489 66.9542 35.3723 66.8628 34.925 66.6578C35.2916 66.2924 35.6584 65.9269 36.025 65.5615C35.4676 65.6571 34.8993 65.7484 34.32 65.8356C33.7338 65.7839 33.1654 65.656 32.615 65.4518C33.0132 65.0717 33.4532 64.7611 33.935 64.5199Z" fill="#131314"/>
  <path fill-rule="evenodd" clip-rule="evenodd" d="M61.765 67.9186C62.0216 68.1014 62.2416 68.3206 62.425 68.5764C62.095 68.4668 61.875 68.2475 61.765 67.9186Z" fill="#0D0D0E"/>
  <path fill-rule="evenodd" clip-rule="evenodd" d="M74.305 64.5199C74.7868 64.7611 75.2268 65.0717 75.625 65.4518C75.0746 65.656 74.5062 65.7839 73.92 65.8356C73.3407 65.7484 72.7724 65.6571 72.215 65.5615C72.5816 65.9269 72.9484 66.2924 73.315 66.6578C72.3034 66.9965 71.2768 67.0147 70.235 66.7126C70.429 67.0768 70.7223 67.424 71.115 67.7542C70.0169 68.0776 68.9169 68.1142 67.815 67.8638C68.0716 68.1196 68.3284 68.3755 68.585 68.6312C67.2401 68.9553 65.9751 68.7544 64.79 68.0282C64.8431 68.2516 64.9348 68.4708 65.065 68.686C64.7774 68.48 64.5391 68.2243 64.35 67.9186C64.2676 67.7942 64.2859 67.6845 64.405 67.5897C65.5556 68.503 66.839 68.8136 68.255 68.5216C68.0123 68.2983 67.7923 68.0608 67.595 67.809C67.5216 67.809 67.485 67.7725 67.485 67.6993C67.2364 67.6184 67.218 67.5088 67.43 67.3704C68.5021 67.9456 69.6204 68.037 70.785 67.6445C70.455 67.3156 70.125 66.9867 69.795 66.6578C69.85 66.603 69.905 66.5482 69.96 66.4934C70.9606 66.8257 71.9689 66.8623 72.985 66.603C72.5761 65.994 72.0261 65.5737 71.335 65.3422C71.4019 65.2468 71.4935 65.192 71.61 65.1777C72.337 65.4549 73.0886 65.601 73.865 65.6163C74.3731 65.6472 74.8497 65.5559 75.295 65.3422C74.9441 65.083 74.6141 64.8089 74.305 64.5199Z" fill="#131314"/>
  <path fill-rule="evenodd" clip-rule="evenodd" d="M46.475 67.9186C46.0188 68.6442 45.3588 69.101 44.495 69.289C43.8705 69.4965 43.2473 69.4965 42.625 69.289C42.753 69.0338 42.9363 68.8327 43.175 68.686C43.1355 68.8912 43.0255 69.0556 42.845 69.1794C44.287 69.4009 45.497 68.9806 46.475 67.9186Z" fill="#101011"/>
  <path fill-rule="evenodd" clip-rule="evenodd" d="M62.425 68.5764C63.3272 69.1738 64.3172 69.3749 65.395 69.1794C65.2145 69.0556 65.1045 68.8912 65.065 68.686C65.8717 69.2508 65.7617 69.5067 64.735 69.4535C64.2536 69.3857 63.7769 69.2943 63.305 69.1794C62.9468 69.057 62.6536 68.8561 62.425 68.5764Z" fill="#111112"/>
  <path fill-rule="evenodd" clip-rule="evenodd" d="M46.805 85.0216C46.5049 85.3734 46.1383 85.6475 45.705 85.8439C44.9496 86.116 44.1796 86.2074 43.395 86.1179C43.6718 85.46 43.9101 84.8022 44.11 84.1445C42.9881 84.9923 41.7231 85.376 40.315 85.2957C42.586 79.3282 44.8042 73.3531 46.97 67.3704C46.8546 67.6026 46.6896 67.7853 46.475 67.9186C46.8686 67.244 47.2352 66.5497 47.575 65.8355C47.6116 65.9087 47.6484 65.9817 47.685 66.0548C45.3338 72.4459 42.9504 78.8229 40.535 85.186C41.8834 85.2011 43.075 84.7807 44.11 83.9252C44.2684 84.082 44.3051 84.2648 44.22 84.4734C44.0184 84.9485 43.8166 85.4236 43.615 85.8987C44.1674 86.0265 44.7174 86.0082 45.265 85.8439C45.8214 85.6334 46.3348 85.3593 46.805 85.0216Z" fill="#161617"/>
  <path fill-rule="evenodd" clip-rule="evenodd" d="M61.765 67.9186C61.5504 67.7853 61.3854 67.6026 61.27 67.3704C63.4358 73.3531 65.6541 79.3282 67.925 85.2957C66.5169 85.376 65.2519 84.9923 64.13 84.1445C64.3299 84.8022 64.5682 85.46 64.845 86.1179C63.7329 86.2611 62.7062 86.0237 61.765 85.4053C61.5955 85.255 61.4488 85.0906 61.325 84.912C61.7404 85.211 62.1804 85.4851 62.645 85.7342C63.2895 85.9969 63.9495 86.0517 64.625 85.8987C64.3572 85.2983 64.1005 84.6953 63.855 84.0897C63.9284 84.0714 64.0016 84.0532 64.075 84.0349C64.6877 84.4314 65.3477 84.7421 66.055 84.9668C66.5997 85.1603 67.1497 85.2151 67.705 85.1312C65.4025 79.0325 63.1109 72.9295 60.83 66.8223C60.6625 66.4943 60.6075 66.1654 60.665 65.8355C61.0048 66.5497 61.3714 67.244 61.765 67.9186Z" fill="#161616"/>
  <path fill-rule="evenodd" clip-rule="evenodd" d="M51.755 86.7757C51.2469 87.1662 50.6787 87.4584 50.05 87.6528C50.0927 86.8845 50.1843 86.1171 50.325 85.3505C50.3544 85.079 50.2811 85.0059 50.105 85.1312C50.2285 84.8526 50.3752 84.8526 50.545 85.1312C50.4032 85.8843 50.2565 86.6336 50.105 87.3787C50.6692 87.245 51.2192 87.044 51.755 86.7757Z" fill="#151516"/>
  <path fill-rule="evenodd" clip-rule="evenodd" d="M50.105 85.1312C50.0412 85.3778 49.8946 85.5604 49.665 85.6794C49.7288 85.4328 49.8754 85.2502 50.105 85.1312Z" fill="#141415"/>
  <path fill-rule="evenodd" clip-rule="evenodd" d="M53.295 85.3505C52.9227 85.9775 52.4093 86.4525 51.755 86.7758C52.2655 86.3038 52.7788 85.8286 53.295 85.3505Z" fill="#171717"/>
  <path fill-rule="evenodd" clip-rule="evenodd" d="M49.445 85.8987C49.1287 86.3132 48.7254 86.6238 48.235 86.8306C47.6376 87.0388 47.0326 87.2032 46.42 87.3239C46.5883 86.5643 46.8267 85.815 47.135 85.0764C47.1166 85.0216 47.0984 84.9668 47.08 84.912C47.0062 84.9944 46.9146 85.031 46.805 85.0216C46.9523 84.6707 47.1357 84.634 47.355 84.912C47.0767 85.5978 46.8201 86.2923 46.585 86.995C46.64 87.0315 46.695 87.0681 46.75 87.1046C47.7723 86.951 48.6706 86.549 49.445 85.8987Z" fill="#141415"/>
  <path fill-rule="evenodd" clip-rule="evenodd" d="M58.685 85.789C58.3915 85.5877 58.1533 85.332 57.97 85.0216C58.0192 85.8338 58.1474 86.6377 58.355 87.4336C57.4302 87.3399 56.5869 86.9927 55.825 86.392C55.1355 85.7968 54.5489 85.1207 54.065 84.3638C53.8443 84.7288 53.5877 85.0577 53.295 85.3505C53.4676 84.9233 53.7243 84.5578 54.065 84.2542C54.6214 84.9739 55.2446 85.6499 55.935 86.2824C56.5985 86.7775 57.3318 87.1247 58.135 87.3239C58.0166 86.4782 57.87 85.6377 57.695 84.8023C57.9029 84.7801 58.0679 84.8531 58.19 85.0216C58.3825 85.2665 58.5475 85.5224 58.685 85.789Z" fill="#131414"/>
  <path fill-rule="evenodd" clip-rule="evenodd" d="M61.325 84.912C61.2153 84.9087 61.142 84.9635 61.105 85.0764C61.4133 85.815 61.6517 86.5643 61.82 87.3239C60.8956 87.1873 60.0338 86.8767 59.235 86.392C59.029 86.2052 58.8456 86.0043 58.685 85.789C59.1178 86.1519 59.5945 86.4625 60.115 86.7209C60.6171 86.9566 61.1304 87.0481 61.655 86.995C61.3753 86.2319 61.1186 85.4644 60.885 84.6927C61.0918 84.663 61.2384 84.7361 61.325 84.912Z" fill="#161616"/>
</svg>