<svg width="28" height="28" viewBox="0 0 28 28" fill="none" xmlns="http://www.w3.org/2000/svg">
<g clip-path="url(#clip0_8_478)">
<path d="M14 27.6938C7.0656 27.6938 0.0218506 26.2063 0.0218506 23.3625C0.0218506 20.825 5.44685 19.775 7.7656 19.4469H7.8531C8.18123 19.4469 8.4656 19.6875 8.50935 20.0156C8.53123 20.1906 8.48748 20.3656 8.3781 20.4969C8.26873 20.6281 8.1156 20.7375 7.9406 20.7594C3.10623 21.4594 1.31248 22.7281 1.31248 23.3844C1.31248 24.6094 6.25623 26.4031 13.9781 26.4031C21.7 26.4031 26.6437 24.6094 26.6437 23.3844C26.6437 22.7281 24.8281 21.4594 19.95 20.7594C19.775 20.7375 19.6218 20.65 19.5125 20.4969C19.4031 20.3656 19.3594 20.1906 19.3812 20.0156C19.425 19.6875 19.7093 19.4469 20.0375 19.4469H20.125C22.4656 19.775 27.9343 20.825 27.9343 23.3625C27.9562 26.1844 20.9343 27.6938 14 27.6938ZM13.5406 23.0563C13.2125 22.75 5.64372 15.5969 5.64372 8.575C5.64372 3.98125 9.38435 0.240625 13.9781 0.240625C18.5718 0.240625 22.3125 3.98125 22.3125 8.575C22.3125 15.4 14.7437 22.7281 14.4156 23.0344L13.9781 23.4719L13.5406 23.0563ZM14 1.55313C10.1281 1.55313 6.9781 4.70313 6.9781 8.575C6.9781 14.0656 12.3375 19.95 14 21.6344C15.6844 19.9063 21.0437 13.9125 21.0437 8.575C21.0218 4.725 17.8718 1.55313 14 1.55313ZM14 12.2938C11.8125 12.2938 10.0406 10.5219 10.0406 8.33438C10.0406 6.14688 11.8125 4.375 14 4.375C16.1875 4.375 17.9593 6.14688 17.9593 8.33438C17.9593 10.5219 16.1875 12.2938 14 12.2938ZM14 5.6875C12.5344 5.6875 11.3531 6.86875 11.3531 8.33438C11.3531 9.8 12.5344 10.9813 14 10.9813C15.4656 10.9813 16.6468 9.8 16.6468 8.33438C16.6468 6.86875 15.4437 5.6875 14 5.6875Z" fill="white"/>
</g>
<defs>
<clipPath id="clip0_8_478">
<rect width="28" height="28" fill="white"/>
</clipPath>
</defs>
</svg>
