<?xml version="1.0" encoding="UTF-8"?>
<svg height="240" width="240" id="_Слой_2" data-name="Слой 2" xmlns="http://www.w3.org/2000/svg" viewBox="0 0 244.12 244.04">
  <defs>
    <style>
      .cls-1 {
        fill: #e94649;
      }

      .cls-2 {
        fill: #fde4d6;
      }
    </style>
  </defs>
  <g id="_Слой_1-2" data-name="Слой 1">
    <g>
      <g>
        <rect class="cls-1" x="154.39" y="18.49" width="14.87" height="127.43" transform="translate(-10.73 138.5) rotate(-45)"/>
        <g>
          <rect class="cls-1" x="157.96" y="-1.79" width="14.14" height="46.38" transform="translate(33.2 122.96) rotate(-45)"/>
          <rect class="cls-1" x="163.88" y="23.38" width="14.14" height="29.61" transform="translate(264.83 186.07) rotate(-135)"/>
          <rect class="cls-1" x="135.83" y="-1.43" width="14.14" height="44.89" transform="translate(229.08 136.93) rotate(-135)"/>
        </g>
        <g>
          <rect class="cls-1" x="215.52" y="55.83" width="14.14" height="46.38" transform="translate(9.32 180.54) rotate(-45)"/>
          <rect class="cls-1" x="198.74" y="58.29" width="14.14" height="29.61" transform="translate(111.96 -124.12) rotate(45)"/>
          <rect class="cls-1" x="215.9" y="78.71" width="14.14" height="44.89" transform="translate(136.83 -128.04) rotate(45)"/>
        </g>
      </g>
      <g>
        <rect class="cls-1" x="74.76" y="18.45" width="14.87" height="127.43" transform="translate(82.21 198.39) rotate(-135)"/>
        <g>
          <rect class="cls-1" x="14.33" y="55.77" width="14.14" height="46.38" transform="translate(-19.3 149.93) rotate(-135)"/>
          <rect class="cls-1" x="31.11" y="58.23" width="14.14" height="29.61" transform="translate(116.82 97.68) rotate(135)"/>
          <rect class="cls-1" x="13.94" y="78.64" width="14.14" height="44.89" transform="translate(107.35 157.71) rotate(135)"/>
        </g>
        <g>
          <rect class="cls-1" x="71.95" y="-1.79" width="14.14" height="46.38" transform="translate(119.76 92.41) rotate(-135)"/>
          <rect class="cls-1" x="66.02" y="23.38" width="14.14" height="29.61" transform="translate(-5.59 62.87) rotate(-45)"/>
          <rect class="cls-1" x="94.07" y="-1.43" width="14.14" height="44.89" transform="translate(14.77 77.68) rotate(-45)"/>
        </g>
      </g>
      <g>
        <g>
          <rect class="cls-1" x="74.86" y="98.13" width="14.87" height="127.43" transform="translate(254.92 218.09) rotate(135)"/>
          <g>
            <rect class="cls-1" x="72.02" y="199.44" width="14.14" height="46.38" transform="translate(292.44 324.14) rotate(135)"/>
            <rect class="cls-1" x="66.09" y="191.05" width="14.14" height="29.61" transform="translate(166.99 8.56) rotate(45)"/>
            <rect class="cls-1" x="94.15" y="200.58" width="14.14" height="44.89" transform="translate(187.35 -6.25) rotate(45)"/>
          </g>
          <g>
            <rect class="cls-1" x="14.46" y="141.82" width="14.14" height="46.38" transform="translate(153.43 266.48) rotate(135)"/>
            <rect class="cls-1" x="31.24" y="156.14" width="14.14" height="29.61" transform="translate(-55.47 318.91) rotate(-135)"/>
            <rect class="cls-1" x="14.07" y="120.44" width="14.14" height="44.89" transform="translate(-64.95 258.87) rotate(-135)"/>
          </g>
        </g>
        <g>
          <rect class="cls-1" x="154.49" y="98.16" width="14.87" height="127.43" transform="translate(161.89 -67.08) rotate(45)"/>
          <g>
            <rect class="cls-1" x="215.65" y="141.89" width="14.14" height="46.38" transform="translate(181.96 -109.13) rotate(45)"/>
            <rect class="cls-1" x="198.86" y="156.2" width="14.14" height="29.61" transform="translate(-60.6 195.7) rotate(-45)"/>
            <rect class="cls-1" x="216.03" y="120.5" width="14.14" height="44.89" transform="translate(-35.74 199.63) rotate(-45)"/>
          </g>
          <g>
            <rect class="cls-1" x="158.03" y="199.45" width="14.14" height="46.38" transform="translate(205.79 -51.53) rotate(45)"/>
            <rect class="cls-1" x="163.95" y="191.05" width="14.14" height="29.61" transform="translate(437.52 230.48) rotate(135)"/>
            <rect class="cls-1" x="135.9" y="200.58" width="14.14" height="44.89" transform="translate(401.77 279.63) rotate(135)"/>
          </g>
        </g>
      </g>
      <rect class="cls-1" x="83.16" y="84.87" width="76.71" height="76.71" transform="translate(-51.54 122.01) rotate(-45)"/>
      <g>
        <path class="cls-2" d="m123.53,123.66c3.17,2.98,6.34,5.97,9.5,8.95,6.49-.04,12.99-.07,19.48-.11-3.31-2.95-6.61-5.9-9.92-8.84h-19.06Z"/>
        <path class="cls-2" d="m123.53,122.79c3.17-2.98,6.34-5.97,9.5-8.95,6.49.04,12.99.07,19.48.11-3.31,2.95-6.61,5.9-9.92,8.84h-19.06Z"/>
      </g>
      <g>
        <path class="cls-2" d="m119.76,123.66c-3.17,2.98-6.34,5.97-9.5,8.95-6.49-.04-12.99-.07-19.48-.11,3.31-2.95,6.61-5.9,9.92-8.84h19.06Z"/>
        <path class="cls-2" d="m119.76,122.79c-3.17-2.98-6.34-5.97-9.5-8.95-6.49.04-12.99.07-19.48.11,3.31,2.95,6.61,5.9,9.92,8.84h19.06Z"/>
      </g>
      <g>
        <path class="cls-2" d="m121.95,119.17c2.98-3.17,5.97-6.34,8.95-9.5-.04-6.49-.07-12.99-.11-19.48-2.95,3.31-5.9,6.61-8.84,9.92v19.06Z"/>
        <path class="cls-2" d="m121.08,119.17c-2.98-3.17-5.97-6.34-8.95-9.5.04-6.49.07-12.99.11-19.48,2.95,3.31,5.9,6.61,8.84,9.92v19.06Z"/>
      </g>
      <path class="cls-2" d="m121.95,127.51c2.98,3.17,5.97,6.34,8.95,9.5,0,6.48,0,12.97,0,19.45-2.98-3.3-5.97-6.59-8.95-9.89v-19.06Z"/>
      <path class="cls-2" d="m121.08,127.51c-2.98,3.17-5.97,6.34-8.95,9.5.04,6.49.07,12.99.11,19.48,2.95-3.31,5.9-6.61,8.84-9.92v-19.06Z"/>
    </g>
  </g>
</svg>